<?xml version="1.0" encoding="utf-8"?>
<!-- Generator: Adobe Illustrator 26.0.1, SVG Export Plug-In . SVG Version: 6.00 Build 0)  -->
<svg version="1.1" id="Layer_1" xmlns="http://www.w3.org/2000/svg" xmlns:xlink="http://www.w3.org/1999/xlink" x="0px" y="0px"
	 viewBox="0 0 315 200" style="enable-background:new 0 0 315 200;" xml:space="preserve">
<style type="text/css">
	.st0{fill:#26743A;}
	.st1{fill:#FFFFFF;}
	.st2{fill:#FFD42E;}
	.st3{opacity:0.5;}
	.st4{fill:#231F20;}
</style>
<path class="st0" d="M73.3,201.3c0,0-10-57,47.8-63.6s100.9-39.1,119-58.4c25.2-26.7,75.9-0.6,75.9-0.6v123.6L73.3,201.3z"/>
<g>
	<g>
		<g>
			<path class="st1" d="M212.5,140.3c0.5,2.3,0.4,5.2,0.4,5.2l-2.1,0.8c0,0-1.3,5.3,6.8,3.7c1.6-0.3,6.1-3.8,6.1-3.8l-3.6-1
				c0,0-0.3-5.2-0.5-7.8C217.8,138.2,214.7,139.6,212.5,140.3z"/>
			<path d="M214.9,150.4c-1.6,0-2.7-0.4-3.5-1.1c-1.2-1.2-0.8-3-0.8-3c0-0.1,0.1-0.1,0.1-0.1l2-0.8c0-0.6,0-3-0.4-5
				c0-0.1,0-0.2,0.1-0.2c2.3-0.7,5.6-2.3,7.2-3c0.1,0,0.1,0,0.2,0c0.1,0,0.1,0.1,0.1,0.1c0.1,2.3,0.4,6.9,0.5,7.7l3.5,1
				c0.1,0,0.1,0.1,0.1,0.1c0,0.1,0,0.1-0.1,0.2c-0.2,0.1-4.6,3.5-6.2,3.8C216.6,150.3,215.7,150.4,214.9,150.4z M211,146.4
				c-0.1,0.4-0.2,1.7,0.7,2.6c1,1.1,3,1.3,5.9,0.7c1.3-0.3,4.8-2.8,5.8-3.5l-3.3-0.9c-0.1,0-0.1-0.1-0.1-0.2c0-0.1-0.3-4.9-0.5-7.6
				c-1.6,0.7-4.6,2.1-6.8,2.8c0.5,2.3,0.4,5,0.4,5.1s0,0.1-0.1,0.2L211,146.4z M212.9,145.4L212.9,145.4L212.9,145.4z"/>
		</g>
		<g>
			<g>
				<path class="st2" d="M207.5,125.7c-0.7,0.2-1.5-0.6-1.5-1.4s0.5-1.5,1.2-1.9c0.7-0.3,1.5-0.4,2.2-0.5c-0.3-0.8,0.1-1.7,0.7-2.2
					c0.6-0.5,1.5-0.6,2.3-0.5c0.5,0.1,1,0.2,1.4,0.6c0.4,0.3,0.7,0.9,0.7,1.5c0.7-0.9,1.8-1.4,2.8-1.2c1,0.3,1.8,1.5,1.9,2.4
					c0.5-0.6,1.2-1.1,2-1.1c1.6,0.1,1.9,1.4,1.2,3.1c0.8-0.4,2.1-0.1,2.5,1.1c0.3,0.9,0,2.3-0.7,3c-0.1,0.1-0.3,0.2-0.5,0.3
					c-0.2,1.3-0.5,2.7-1,4.5c-0.3,1.3-0.9,2.7-1.6,3.8c-0.3,0.5-0.6,0.8-1.2,1.1c0-0.5-0.6-0.8-0.7-1.4c-0.1-0.7,0.3-1.3-0.1-1.9
					c-0.8-1.1-1.3-2.4-1.5-3.7c-0.2-1-0.2-2.2,0.3-3.1c0.2-0.3,0.4-0.7,0.7-0.9c-0.1-0.3-0.2-0.6-0.3-0.8c-0.5,0.8-0.8,1.3-1.9,1.7
					c-0.8,0.3-1.8-0.1-2.1-0.9c-0.2,0.8-1.4,1.9-2.2,2c-0.8,0.1-1.1-0.3-1.4-1c-0.7,0.6-1.2,1.2-1.9,1.5c-1.1,0.4-2.4-0.3-2.8-1.4
					C205.7,127.4,206.4,126.1,207.5,125.7z"/>
				<path d="M220,138.6L220,138.6c-0.1-0.1-0.2-0.1-0.2-0.2c0-0.2-0.2-0.4-0.3-0.6c-0.2-0.2-0.3-0.4-0.4-0.7c0-0.3,0-0.6,0-0.8
					c0.1-0.4,0.1-0.7-0.1-1c-0.8-1.2-1.3-2.4-1.6-3.7c-0.2-1.3-0.2-2.3,0.3-3.2c0.2-0.3,0.4-0.6,0.7-0.9c-0.1-0.1-0.1-0.2-0.2-0.4
					c-0.4,0.6-0.8,1.1-1.8,1.4c-0.8,0.3-1.7,0-2.1-0.6c-0.4,0.8-1.5,1.7-2.2,1.8c-0.8,0.1-1.2-0.3-1.5-0.9c-0.1,0.1-0.2,0.2-0.3,0.3
					c-0.5,0.5-0.9,0.9-1.5,1.1c-0.5,0.2-1.2,0.2-1.8-0.1s-1.1-0.8-1.2-1.4c-0.3-1,0.1-2.2,1-2.8c-0.1,0-0.3-0.1-0.4-0.2
					c-0.4-0.3-0.6-0.8-0.7-1.3c0-0.8,0.5-1.6,1.3-2c0.6-0.3,1.2-0.4,1.9-0.5c0.1,0,0.1,0,0.2,0c-0.2-0.8,0.2-1.7,0.8-2.2
					s1.5-0.7,2.4-0.5c0.6,0.1,1.1,0.3,1.5,0.6c0.4,0.3,0.6,0.7,0.7,1.2c0.8-0.8,1.8-1.2,2.7-0.9c1,0.2,1.7,1.3,2,2.2
					c0.6-0.6,1.2-0.9,1.9-0.9s1.2,0.3,1.4,0.7c0.3,0.5,0.4,1.3,0,2.2c0.4-0.1,0.8-0.1,1.2,0.1c0.5,0.2,0.9,0.7,1.1,1.3
					c0.3,0.9,0,2.4-0.7,3.2c-0.1,0.1-0.3,0.2-0.4,0.3c-0.3,1.4-0.6,2.8-1,4.4c-0.3,1.3-0.9,2.7-1.6,3.9
					C221.1,138,220.8,138.3,220,138.6C220.1,138.6,220.1,138.6,220,138.6z M218.4,126.5L218.4,126.5c0.1,0,0.1,0.1,0.2,0.1
					c0.1,0.3,0.2,0.6,0.3,0.8c0,0.1,0,0.2,0,0.2c-0.3,0.3-0.5,0.6-0.7,0.9c-0.4,0.8-0.5,1.8-0.3,3c0.2,1.3,0.8,2.5,1.5,3.6
					c0.3,0.4,0.2,0.8,0.2,1.2c0,0.2-0.1,0.5,0,0.7c0,0.2,0.2,0.4,0.3,0.6c0.1,0.2,0.3,0.3,0.3,0.6c0.5-0.2,0.7-0.5,0.9-0.9
					c0.7-1.1,1.2-2.5,1.6-3.8c0.4-1.6,0.7-3,1-4.5c0-0.1,0-0.1,0.1-0.1c0.2-0.1,0.3-0.2,0.4-0.3c0.6-0.7,0.9-2,0.6-2.8
					c-0.2-0.5-0.5-0.9-0.9-1.1s-0.9-0.2-1.3,0c-0.1,0-0.1,0-0.2,0c-0.1-0.1-0.1-0.1,0-0.2c0.4-1,0.4-1.8,0.1-2.3
					c-0.2-0.4-0.6-0.5-1.2-0.6c-0.6,0-1.2,0.3-1.8,1c0,0.1-0.1,0.1-0.2,0.1c-0.1,0-0.1-0.1-0.1-0.2c-0.1-0.8-0.8-2-1.8-2.2
					c-0.9-0.2-1.9,0.2-2.7,1.1c0,0.1-0.1,0.1-0.2,0.1c-0.1,0-0.1-0.1-0.1-0.2c0-0.5-0.2-1-0.6-1.3c-0.3-0.3-0.8-0.4-1.4-0.5
					c-0.8-0.1-1.6,0.1-2.1,0.5c-0.6,0.5-0.9,1.3-0.7,2c0,0,0,0.1,0,0.2l-0.1,0.1c-0.1,0-0.3,0-0.4,0.1c-0.6,0.1-1.2,0.2-1.8,0.4
					c-0.6,0.3-1.1,0.9-1.1,1.7c0,0.4,0.2,0.8,0.5,1c0.2,0.2,0.5,0.3,0.8,0.2c0.1,0,0.2,0,0.2,0.1s0,0.2-0.1,0.2
					c-1,0.3-1.6,1.6-1.3,2.6c0.2,0.5,0.5,0.9,1.1,1.2c0.5,0.2,1,0.3,1.5,0.1s0.9-0.6,1.4-1c0.2-0.1,0.3-0.3,0.5-0.5
					c0,0,0.1-0.1,0.2,0c0.1,0,0.1,0.1,0.1,0.1c0.3,0.7,0.5,1,1.2,0.9s1.9-1.2,2-1.9c0-0.1,0.1-0.1,0.2-0.1c0.1,0,0.2,0,0.2,0.1
					c0.3,0.7,1.2,1,1.9,0.7C217.7,127.8,218,127.3,218.4,126.5C218.3,126.5,218.3,126.5,218.4,126.5z"/>
			</g>
		</g>
		<g>
			<g>
				<path class="st1" d="M208.7,130.2v-0.1h0.1c0.7-0.3,1.2-0.9,1.9-1.5c0.3,0.7,0.6,1.1,1.4,1c0.8-0.1,2-1.2,2.2-2
					c0.3,0.8,1.3,1.1,2.1,0.9c1.1-0.4,1.5-0.9,1.9-1.7c0.2,0.8,0.7,1.6,1.5,2.2c0.3,0.2,0.7,0.4,1,0.5c0,0.2,0,0.3,0,0.4
					c0.1,0.5,0.2,1.7,0.1,2.8c0.9-0.7,1.6-0.6,2.2-0.1c0.6,0.6,0.5,1.4,0,2c-0.5,0.5-1.5,0.8-2.3,0.6c-0.2,1.4-0.5,4.2-1.5,5.4
					c-1,1.3-2.9,2.2-4.8,2.2c-1.9,0-3.8-0.8-5-2c-1.3-1.5-1.6-3.4-1.5-5.2C208.2,133.7,208.7,132,208.7,130.2z"/>
				<path d="M214.5,142.9c-1.9,0-3.8-0.8-5-2.1s-1.7-3.1-1.5-5.3c0-0.8,0.2-1.6,0.3-2.4c0.1-1,0.3-2,0.3-3V130
					c0-0.1,0.1-0.1,0.1-0.2h0.1c0.5-0.2,0.9-0.6,1.4-1c0.2-0.1,0.3-0.3,0.5-0.5c0,0,0.1-0.1,0.2,0c0.1,0,0.1,0.1,0.1,0.1
					c0.3,0.7,0.5,1,1.2,0.9s1.9-1.2,2-1.9c0-0.1,0.1-0.1,0.2-0.1c0.1,0,0.2,0,0.2,0.1c0.3,0.7,1.2,1,1.9,0.7
					c1.1-0.4,1.4-0.9,1.8-1.6c0-0.1,0.1-0.1,0.2-0.1c0.1,0,0.1,0.1,0.1,0.1c0.2,0.6,0.6,1.5,1.4,2.1c0.3,0.2,0.6,0.3,0.9,0.4
					c0.1,0,0.1,0.1,0.1,0.2c0,0.2,0,0.3,0,0.4l0,0c0.1,0.5,0.2,1.4,0.1,2.4c0.8-0.5,1.5-0.4,2.1,0.2c0.6,0.6,0.6,1.6,0,2.2
					c-0.5,0.5-1.4,0.8-2.3,0.7c0,0.1,0,0.2,0,0.3c-0.2,1.6-0.6,3.9-1.5,5.1c-1.1,1.4-2.9,2.2-4.9,2.3
					C214.5,142.9,214.5,142.9,214.5,142.9z M208.9,130.2c0,1-0.2,2.1-0.3,3.1c-0.1,0.8-0.2,1.6-0.3,2.3c-0.1,2.1,0.4,3.8,1.4,5.1
					c1.1,1.2,3,2,4.8,2s3.6-0.8,4.6-2.1c0.8-1.1,1.2-3.5,1.4-4.9c0-0.2,0-0.3,0.1-0.5c0,0,0-0.1,0.1-0.1h0.1c0.8,0.2,1.7,0,2.2-0.5
					s0.5-1.3,0-1.7c-0.6-0.6-1.2-0.5-1.9,0.1c-0.1,0-0.1,0.1-0.2,0c-0.1,0-0.1-0.1-0.1-0.2c0.1-1.1,0-2.2-0.1-2.8l0,0
					c0-0.1,0-0.2,0-0.3c-0.3-0.1-0.7-0.3-0.9-0.5c-0.8-0.6-1.2-1.3-1.4-2c-0.4,0.6-0.8,1.1-1.8,1.4c-0.8,0.3-1.7,0-2.1-0.6
					c-0.4,0.8-1.5,1.7-2.2,1.8c-0.8,0.1-1.2-0.3-1.5-0.9c-0.1,0.1-0.2,0.2-0.3,0.3C209.9,129.5,209.5,129.9,208.9,130.2L208.9,130.2
					z M208.7,130.2L208.7,130.2L208.7,130.2z"/>
			</g>
		</g>
		<g>
			<path d="M210.4,132.8c0-0.2,0.1-0.4,0.4-0.5c0.2,0,0.4,0.1,0.5,0.4s-0.1,0.4-0.4,0.5C210.6,133.2,210.4,133,210.4,132.8z"/>
		</g>
		<g>
			<path d="M216.4,133.1c0-0.2,0.1-0.4,0.4-0.5c0.2,0,0.4,0.1,0.5,0.4s-0.1,0.4-0.4,0.5C216.6,133.5,216.4,133.3,216.4,133.1z"/>
		</g>
		<g>
			<path d="M214.6,140.1c-0.2,0-0.4,0-0.6-0.1c-0.1,0-0.2-0.1-0.1-0.2c0-0.1,0.1-0.2,0.2-0.1c0.7,0.2,1.5-0.1,1.9-0.6
				c0.1-0.1,0.2-0.1,0.2,0c0.1,0.1,0.1,0.2,0,0.2C215.9,139.8,215.2,140.1,214.6,140.1z"/>
		</g>
		<g>
			<path d="M213.6,137.9c-0.3,0-0.6-0.1-0.9-0.2c-0.2-0.1-0.4-0.1-0.5-0.3c-0.2-0.2-0.2-0.5-0.2-0.8c0-0.2,0.1-0.4,0.2-0.6v-0.1
				c0.5-1,0.8-2.2,0.8-3.4c0-0.1,0.1-0.2,0.2-0.2l0,0c0.1,0,0.2,0.1,0.2,0.2c0,1.2-0.3,2.4-0.8,3.5v0.1c-0.1,0.2-0.2,0.4-0.2,0.5
				c0,0.2,0,0.4,0.1,0.5s0.2,0.2,0.4,0.2c0.4,0.1,0.7,0.2,1,0.1c0.4-0.1,0.7-0.2,0.8-0.5c0.1-0.1,0.2-0.1,0.2,0
				c0.1,0.1,0.1,0.2,0,0.2c-0.2,0.3-0.6,0.6-1.1,0.6C213.8,137.9,213.7,137.9,213.6,137.9z"/>
		</g>
		<g>
			<path d="M220.9,133.7L220.9,133.7c-0.1,0-0.2-0.1-0.2-0.2c0.1-0.5,0.1-0.8,0.1-1.2c0-0.1,0.1-0.2,0.2-0.2c0.1,0,0.2,0.1,0.2,0.2
				c0,0.5-0.1,0.7-0.1,1.2C221.1,133.7,221,133.7,220.9,133.7z"/>
		</g>
		<g>
			<path d="M207.2,129L207.2,129c-0.4-0.4-0.6-1.1-0.4-1.6c0,0,0,0,0.1,0c0,0,0,0,0,0.1C206.7,127.9,206.8,128.5,207.2,129
				C207.2,128.9,207.2,128.9,207.2,129L207.2,129z"/>
		</g>
		<g>
			<path d="M223,128.4C223,128.4,222.9,128.4,223,128.4c-0.1,0-0.1-0.1,0-0.1c0.7-0.6,0.9-1.6,0.6-2.5v-0.1h0.1
				C224,126.7,223.7,127.8,223,128.4L223,128.4z"/>
		</g>
	</g>
	<g>
		<g>
			<path class="st1" d="M185.6,158.2c-0.9-4.4-1.3-12.2-2.6-16.6c-1.2-1.1-2.4-3-2.8-4.6c-0.2-0.7-0.2-1,0.3-1.4
				c0.3-0.3,0.9-0.2,1.3,0c-0.2-0.4-0.6-0.8,0-1.2c0.2-0.2,0.6-0.3,0.8-0.1c-0.1-0.9,0.8-1.4,1.4-0.5c-0.4-1.1-0.8-2-1.2-3
				c-0.3-0.6-0.5-1.3-0.1-1.6c0.5-0.3,1,0.4,1.5,1.4c0.9,1.7,1.2,2.3,2.2,3.9c1,1.5,1.7,4.2,1,5.2c0,1.8,4.1,12.9,5.7,15.4
				c0.6,0.9-0.2,1.5-0.6,2.5c-0.5,1.2-2.3,5.4-5.2,3.3C186.5,160.1,185.7,158.4,185.6,158.2z"/>
			<path d="M188.8,161.4c-0.5,0-1.1-0.2-1.7-0.6c-0.9-0.6-1.7-2.3-1.7-2.6l0,0c-0.4-1.8-0.7-4.2-1-6.8c-0.4-3.6-0.9-7.2-1.6-9.8
				c-1.1-1.1-2.3-2.9-2.8-4.7c-0.2-0.7-0.2-1.1,0.3-1.6c0.3-0.3,0.7-0.3,1-0.2c-0.1-0.3-0.2-0.7,0.2-1c0.2-0.2,0.5-0.3,0.8-0.2
				c0-0.4,0.2-0.7,0.6-0.8c0.2-0.1,0.4-0.1,0.6,0c-0.3-0.8-0.6-1.6-1-2.4c-0.3-0.7-0.6-1.5-0.1-1.8c0.2-0.1,0.3-0.1,0.5-0.1
				c0.4,0.1,0.8,0.5,1.3,1.5l0,0c0.9,1.7,1.2,2.3,2.2,3.8c0.9,1.4,1.8,4.2,1,5.4c0.1,1.8,4.1,12.7,5.7,15.2c0.5,0.7,0.2,1.3-0.2,1.9
				c-0.1,0.2-0.3,0.5-0.4,0.7c-0.5,1.3-1.6,3.4-3.2,3.9C189.2,161.4,189,161.4,188.8,161.4z M185.8,158.1c0,0.2,0.8,1.8,1.6,2.4
				c0.7,0.5,1.3,0.7,2,0.5c1.5-0.4,2.5-2.5,3-3.7c0.1-0.3,0.3-0.6,0.4-0.8c0.3-0.6,0.6-1,0.2-1.5c-1.6-2.4-5.7-13.5-5.7-15.5v-0.1
				c0.6-0.9,0-3.5-1-5c-1-1.6-1.3-2.1-2.2-3.9l0,0c-0.3-0.5-0.7-1.3-1.1-1.4c-0.1,0-0.1,0-0.2,0c-0.3,0.2,0.1,1.1,0.2,1.4
				c0.4,1,0.8,2.1,1.2,3c0,0.1,0,0.2-0.1,0.2s-0.2,0-0.2-0.1c-0.2-0.3-0.4-0.4-0.7-0.3c-0.2,0.1-0.4,0.3-0.4,0.7
				c0,0.1,0,0.1-0.1,0.2c-0.1,0-0.1,0-0.2,0c-0.2-0.1-0.5,0-0.6,0.1c-0.3,0.2-0.2,0.4,0,0.8c0,0.1,0.1,0.2,0.1,0.3s0,0.2-0.1,0.2
				s-0.1,0.1-0.2,0c-0.3-0.2-0.8-0.3-1.1,0c-0.4,0.4-0.4,0.6-0.2,1.2c0.5,1.7,1.7,3.5,2.8,4.5c0,0,0,0,0,0.1
				c0.7,2.6,1.2,6.3,1.6,9.9C185.1,153.9,185.4,156.3,185.8,158.1L185.8,158.1z"/>
		</g>
		<g>
			<path d="M182.5,138.1c-0.1,0-0.3,0-0.4-0.1c-0.2-0.1-0.3-0.3-0.4-0.4l-0.5-0.7c-0.1-0.1,0-0.2,0-0.2c0.1-0.1,0.2,0,0.2,0l0.5,0.7
				c0.1,0.1,0.2,0.3,0.3,0.3c0.1,0.1,0.2,0.1,0.3,0c0.1,0,0.1-0.2,0.1-0.3c0-0.2-0.1-0.3-0.2-0.5c-0.3-0.5-0.4-0.6-0.6-0.9
				c-0.1-0.1-0.2-0.2-0.3-0.4c-0.1-0.1,0-0.2,0-0.2c0.1-0.1,0.2,0,0.2,0c0.1,0.2,0.3,0.3,0.3,0.4c0.2,0.3,0.3,0.4,0.6,1
				c0.1,0.2,0.2,0.4,0.2,0.6C182.8,137.7,182.7,137.9,182.5,138.1C182.6,138.1,182.5,138.1,182.5,138.1z"/>
		</g>
		<g>
			<path d="M183.7,137.8c-0.2,0-0.4-0.1-0.5-0.2c-0.1-0.1-0.3-0.2-0.4-0.3c-0.1-0.1-0.1-0.2,0-0.2c0.1-0.1,0.2-0.1,0.2,0
				c0.1,0.1,0.3,0.2,0.4,0.3c0.1,0.1,0.3,0.2,0.4,0.1c0.1,0,0.2-0.2,0.2-0.4c0-0.3-0.3-1-1.5-2.8l0,0c-0.1-0.1,0-0.2,0-0.2
				c0.1-0.1,0.2,0,0.2,0l0,0c0.7,1,1.5,2.3,1.5,3C184.2,137.4,184.1,137.8,183.7,137.8C183.7,137.8,183.7,137.8,183.7,137.8z"/>
		</g>
		<g>
			<path d="M184.4,139.1c-0.1,0-0.1-0.1-0.2-0.1c-0.2-0.8,0.2-1.4,0.6-1.9c0.1-0.2,0.3-0.4,0.3-0.5c-0.1-0.2-0.9-0.4-1.2-0.5
				c-0.2-0.1-0.3-0.1-0.3-0.1c-0.4-0.2-0.5-0.5-0.5-0.6c0-0.2,0-0.3,0.1-0.4c0.1-0.1,0.4-0.4,0.6-0.4c0.4,0,1.3,0.2,2,0.4
				c0.1,0,0.2,0,0.3,0.1c0.3,0.1,1.1,0.6,1.1,1c0,0.1-0.1,0.2-0.2,0.2c-0.1,0-0.2-0.1-0.2-0.2c0-0.1-0.6-0.6-0.9-0.7
				c-0.1,0-0.2,0-0.3-0.1c-0.5-0.1-1.6-0.4-1.9-0.4c-0.1,0-0.3,0.2-0.4,0.3v0.1c0,0.1,0.1,0.2,0.4,0.4c0,0,0.2,0.1,0.3,0.1
				c0.6,0.2,1.2,0.4,1.4,0.7c0.1,0.2,0,0.5-0.3,0.9s-0.7,1-0.5,1.6C184.6,139,184.6,139.1,184.4,139.1
				C184.5,139.1,184.5,139.1,184.4,139.1z"/>
		</g>
		<g>
			<path d="M184.5,134.9c-0.1,0-0.1,0-0.2-0.1c-0.1-0.2-0.2-0.5-0.4-0.8c-0.1-0.1-0.2-0.3-0.2-0.4c0-0.1,0-0.2,0.1-0.2
				s0.2,0,0.2,0.1s0.1,0.2,0.2,0.4c0.2,0.3,0.4,0.6,0.4,0.8C184.7,134.7,184.6,134.8,184.5,134.9L184.5,134.9z"/>
		</g>
		<g>
			<path d="M184.3,137.5c-0.1,0-0.2,0-0.2-0.1c-0.1,0-0.1-0.1-0.1-0.2c0-0.1,0.1-0.1,0.2-0.1c0.1,0,0.2,0,0.3-0.1
				c0.2-0.1,0.2-0.4,0.1-0.7c0-0.1,0-0.2,0.1-0.2s0.2,0,0.2,0.1c0.2,0.6,0,1-0.2,1.1C184.6,137.4,184.5,137.5,184.3,137.5z"/>
		</g>
	</g>
	<g>
		<g>
			<path d="M238.1,164.5c-1.1-5.9-1.1-12.3-5.9-16.2c-2.3-1.9-7.7-2.7-10.9-2.9c-0.2,3.1-3.2,3.8-5.1,3.7c-3.2-0.2-3.8-0.8-4.6-3.3
				c-0.7,0.3-5.1,0.5-7.9,3c-5.2,4.7-11.6,4.2-11.2,4.5c0.4,0.3-1,6.8-5,7.6c-2.1,0.4,9.6,2.2,17.6,0c-0.3,4.2,1.2,16.4,2.1,21.1
				c8.4,5.8,25.6-0.8,25.6-0.8s-1.3-3.9-1.3-6.8c0-1.4,3.4,1.8,4.1,1.9c0.2,0,0.9-0.5,1-0.7C237.1,174.4,239.1,169.9,238.1,164.5z"
				/>
			<path d="M216.6,184.6c-3.4,0-6.9-0.6-9.6-2.4l-0.1-0.1c-0.9-4.7-2.3-16.6-2.1-20.9c-7.2,1.8-17.2,0.7-17.8,0
				c-0.1-0.1-0.1-0.2-0.1-0.2c0-0.1,0.2-0.2,0.4-0.2c1.9-0.4,3.1-2.1,3.8-3.4c1-1.9,1.2-3.6,1.1-3.9c-0.1-0.1-0.1-0.1-0.1-0.2
				c0-0.2,0.2-0.2,0.8-0.3c1.8-0.2,6.4-0.7,10.5-4.3c2.2-2,5.4-2.6,7-2.9c0.4-0.1,0.8-0.1,0.9-0.2h0.1l0.1,0.1
				c0.8,2.4,1.3,3,4.4,3.2c0.5,0,1.9,0,3.1-0.6c1.1-0.6,1.7-1.6,1.8-2.9c0,0,0-0.1,0.1-0.1s0.1,0,0.1,0c3.7,0.2,8.8,1.2,11,3
				c3.9,3.3,4.7,8.2,5.4,13c0.2,1.1,0.3,2.2,0.6,3.4c1,5.2-0.8,9.5-1.5,11.1l-0.1,0.2c-0.1,0.3-0.9,0.8-1.2,0.8s-0.7-0.4-1.4-0.9
				c-0.8-0.6-2.1-1.5-2.4-1.3c0,0-0.1,0.1-0.1,0.2c0,2.9,1.3,6.7,1.3,6.7c0,0.1,0,0.2-0.1,0.2c0,0-4.4,1.7-9.7,2.6
				C221.2,184.3,218.9,184.6,216.6,184.6z M207.3,181.9c4.3,2.9,10.9,2.6,15.7,1.7c4.7-0.8,8.6-2.2,9.5-2.5
				c-0.2-0.8-1.3-4.1-1.3-6.7c0-0.3,0.1-0.4,0.2-0.5c0.5-0.2,1.4,0.4,2.7,1.4c0.5,0.4,1.1,0.8,1.3,0.8l0,0c0.2,0,0.8-0.4,0.8-0.6
				l0.1-0.2c0.7-1.6,2.5-5.8,1.5-10.9c-0.2-1.1-0.4-2.3-0.6-3.4c-0.8-4.9-1.5-9.6-5.3-12.8c-2.1-1.7-7-2.6-10.6-2.9
				c-0.1,1.3-0.8,2.4-2,3c-1.3,0.7-2.7,0.7-3.3,0.7c-3.2-0.2-3.9-0.8-4.7-3.2c-0.2,0-0.5,0.1-0.8,0.2c-1.6,0.3-4.7,0.8-6.9,2.8
				c-4.1,3.7-8.9,4.2-10.7,4.4c-0.2,0-0.3,0-0.4,0.1c0,0.2,0,0.5-0.1,1c-0.4,2-1.9,6-5.1,6.7c1.6,0.5,10.7,1.5,17.4-0.3
				c0.1,0,0.1,0,0.2,0l0.1,0.1C205,165,206.4,177.1,207.3,181.9z"/>
		</g>
	</g>
	<g>
		<path d="M229.5,169.8c-0.1,0-0.1,0-0.2-0.1c-1.7-5.2-2.7-8.4-2.7-15.5c0-0.1,0.1-0.2,0.2-0.2c0.1,0,0.2,0.1,0.2,0.2
			c0,7,1,10.3,2.7,15.4C229.7,169.7,229.6,169.8,229.5,169.8L229.5,169.8z"/>
	</g>
	<g>
		<path d="M205.1,161.1H205c-0.1-0.1-0.1-0.2-0.1-1.2c0-0.8,0-2.1-0.1-4c0-0.1,0.1-0.2,0.2-0.2c0.1,0,0.2,0.1,0.2,0.2
			c0.1,2,0.1,3.3,0.1,4.1c0,0.5,0,0.9,0,1s0,0.1,0,0.2C205.2,161,205.1,161.1,205.1,161.1z M205.2,160.7L205.2,160.7L205.2,160.7z"
			/>
	</g>
	<g>
		<path class="st1" d="M214.1,158.1c-3.2,0-6.1-0.3-7.7-1.1c0,0,0,0,0-0.1h0.1c3.2,1.6,12.3,1.1,17.6,0.3h0.1v0.1
			C221.4,157.8,217.6,158.1,214.1,158.1z"/>
	</g>
	<g>
		<path class="st1" d="M217.5,162.7c-4.3,0-8.2-0.7-11.1-1.4c0,0-0.1,0,0-0.1c0,0,0-0.1,0.1,0c4.5,1.1,11.3,2.1,18.1,0.7h0.1v0.1
			C222.2,162.5,219.8,162.7,217.5,162.7z"/>
	</g>
	<g>
		<path class="st1" d="M237.7,172.3C237.6,172.3,237.6,172.3,237.7,172.3c-1.6-2.6-4.1-3.9-6.4-3.3h-0.1v-0.1
			C233.6,168.3,236.2,169.6,237.7,172.3L237.7,172.3L237.7,172.3z"/>
	</g>
	<g>
		<path class="st1" d="M237.1,173.4C237,173.4,237,173.4,237.1,173.4c-0.3-0.2-0.5-0.5-0.7-0.8c-0.1-0.1-0.1-0.2-0.2-0.3
			c-0.4-0.6-1-1.1-1.7-1.4c0,0,0,0,0-0.1c0,0,0,0,0.1,0c0.7,0.3,1.3,0.8,1.8,1.4c0.1,0.1,0.1,0.2,0.2,0.3c0.2,0.3,0.4,0.6,0.6,0.8
			C237.1,173.3,237.1,173.3,237.1,173.4L237.1,173.4z"/>
	</g>
	<g>
		<path class="st1" d="M192.5,157.8L192.5,157.8C192.5,157.8,192.4,157.7,192.5,157.8c0.5-1.4,0.7-2.8,0.7-4.2c0,0,0-0.1,0.1-0.1
			l0,0c0,0,0.1,0,0.1,0.1C193.4,155,193.1,156.5,192.5,157.8C192.6,157.8,192.5,157.8,192.5,157.8z"/>
	</g>
	<g>
		<path class="st1" d="M194.3,155.2L194.3,155.2C194.3,155.2,194.2,155.2,194.3,155.2c0.1-0.6,0.1-1.1,0-1.6c0,0,0-0.1,0.1-0.1
			c0,0,0.1,0,0.1,0.1C194.5,154.1,194.5,154.6,194.3,155.2C194.4,155.2,194.3,155.2,194.3,155.2z"/>
	</g>
	<g>
		<path class="st1" d="M229.9,170.1c-0.1,0-0.1-0.1-0.2-0.1c-1.2-4.2-1.9-8.6-2.3-13c0-0.1,0.1-0.2,0.2-0.2c0.1,0,0.2,0.1,0.2,0.2
			c0.4,4.3,1.2,8.7,2.3,12.9C230.1,170,230,170.1,229.9,170.1L229.9,170.1z"/>
	</g>
	<g>
		<path class="st1" d="M204.7,161.8L204.7,161.8c-0.1,0-0.2-0.1-0.2-0.2l0.1-4.8c0-0.1,0.1-0.2,0.2-0.2l0,0c0.1,0,0.2,0.1,0.2,0.2
			l-0.1,4.8C204.9,161.8,204.8,161.8,204.7,161.8z"/>
	</g>
	<g>
		<path class="st1" d="M230.6,171.2c0.6-0.6,1.8-0.4,2.6,0c0.4,0.2,3.5,3,2.3,5.4c-1,2.1-1.6,2.8-6.8,10.4c-0.2,0.3-0.4,0.6-0.7,0.8
			c-0.9,0.6-2.1-0.3-2.5-1.3c-0.8-2.1,0.3-4.5,1.3-6.5C227.9,177.9,230,171.8,230.6,171.2z"/>
		<path d="M227.4,188.2c-0.2,0-0.3,0-0.5-0.1c-0.6-0.2-1.3-0.8-1.5-1.5c-0.9-2.3,0.4-4.8,1.3-6.7c0.5-0.9,1.1-2.6,1.8-4.3
			c1-2.6,1.6-4.2,2-4.5l0,0c0.7-0.6,1.9-0.5,2.8,0c0.5,0.2,3.6,3.2,2.4,5.7c-0.8,1.6-1.3,2.5-4.1,6.5c-0.7,1.1-1.6,2.4-2.7,4
			c-0.2,0.3-0.4,0.6-0.7,0.8C227.9,188.1,227.7,188.2,227.4,188.2z M231.7,171c-0.4,0-0.7,0.1-1,0.3l0,0c-0.3,0.3-1.2,2.5-1.9,4.4
			c-0.6,1.7-1.3,3.4-1.8,4.3c-0.9,1.8-2.2,4.3-1.3,6.4c0.2,0.6,0.8,1.1,1.3,1.3c0.2,0.1,0.6,0.1,0.9-0.1c0.3-0.2,0.5-0.4,0.6-0.7
			c1.1-1.6,2-2.9,2.7-4c2.7-4,3.3-4.8,4.1-6.4c1.1-2.3-2-5.1-2.3-5.2C232.7,171.2,232.1,171,231.7,171z M230.6,171.2L230.6,171.2
			L230.6,171.2z"/>
	</g>
	<g>
		<g>
			<path d="M265.7,156.2c-0.1,2.6,1.5,5.3,4,6.1c1.3,0.5,2.8,0.4,4.2,0.8c1.4,0.4,2.8,1.4,2.8,2.8c0,0.9-0.5,3.1,2.3,4.3
				c2.3,1,1.8,6.6-5.4,9c-2.2,0.7-0.8-1.1-3.1-1.4c-2.3-0.3-4.3-1.6-5.9-3.3s-2.7-3.7-3.5-5.9c-1-2.5-1.7-5.2-1.1-7.7
				C260.5,158.3,262.8,156,265.7,156.2z"/>
			<path d="M272.7,179.6c-0.5,0-0.7-0.3-0.9-0.6c-0.2-0.4-0.4-0.8-1.4-1c-2.2-0.3-4.3-1.5-6-3.4c-1.4-1.5-2.6-3.4-3.6-5.9
				c-1.3-3.1-1.6-5.6-1.1-7.8c0.6-2.5,2.9-5,6-4.8c0.1,0,0.2,0.1,0.2,0.2c-0.1,2.6,1.6,5.2,3.9,6c0.7,0.3,1.5,0.3,2.3,0.4
				c0.6,0.1,1.3,0.2,1.9,0.3c1.4,0.4,2.9,1.5,2.9,3c0,0.1,0,0.3,0,0.4c-0.1,1.1-0.2,2.7,2.2,3.8c0.9,0.4,1.4,1.4,1.3,2.6
				c-0.1,2.1-2,5.1-6.8,6.7C273.2,179.5,272.9,179.6,272.7,179.6z M265.3,156.3c-2.7,0-4.7,2.3-5.2,4.5c-0.5,2.1-0.2,4.6,1.1,7.6
				c1,2.4,2.1,4.4,3.5,5.8c1.7,1.8,3.7,2.9,5.8,3.3c1.2,0.2,1.5,0.7,1.7,1.2c0.2,0.4,0.3,0.6,1.3,0.3c4.7-1.5,6.4-4.4,6.5-6.4
				c0.1-1.1-0.4-1.9-1.1-2.3c-2.6-1.1-2.5-3.1-2.4-4.1c0-0.2,0-0.3,0-0.4c0-1.3-1.4-2.3-2.7-2.6c-0.6-0.2-1.2-0.2-1.8-0.3
				c-0.8-0.1-1.6-0.2-2.4-0.5c-2.4-0.8-4.1-3.4-4.1-6.1C265.4,156.3,265.4,156.3,265.3,156.3z"/>
		</g>
		<g>
			<path d="M251.6,150.2c0.8,3.7,1.5,7.7,0,11.2c-0.5,1.1-1.2,2.2-1.6,3.3c-0.5,1.4-0.5,2.9-0.4,4.3c0.2,2.8,1.1,5.6,3,7.5
				c1.9,2,5.2,2.8,7.6,1.4c2.1-1.2,3.1-3.8,2.9-6.3c-0.1-2.4-1.2-4.7-2.3-6.9C258.2,159.7,255.1,154.7,251.6,150.2z"/>
		</g>
		<g>
			<path class="st1" d="M256.9,168.3c0.1-2-0.2-3.1-0.3-4.6c0.8-0.4,1.7-0.7,2.5-0.8c0.4-0.1,0.8-0.1,1.1,0.2
				c0.2,0.1,1.1-0.6,1.2-0.4c0.6,1.5,0.7,3.7,1.3,5.2c0,0.1,2.3-0.1,2.4,0c0.2,0.5,0,4.6-0.1,4.7c-8.2,5.5-12.2-2.4-12.2-2.4
				S254.4,169.2,256.9,168.3z"/>
			<path d="M259.6,174.6c-0.6,0-1.2-0.1-1.8-0.2c-3.4-0.9-5-4-5.1-4.2c0-0.1,0-0.2,0.1-0.2c0,0,1.5-0.9,3.9-1.8c0-1.2-0.1-2.1-0.1-3
				c0-0.5-0.1-0.9-0.1-1.4c0-0.1,0-0.1,0.1-0.2c0.8-0.4,1.7-0.7,2.6-0.8c0.4-0.1,0.9-0.1,1.3,0.2c0.1,0,0.3-0.1,0.5-0.2
				c0.3-0.2,0.5-0.3,0.7-0.2c0.1,0,0.1,0.1,0.1,0.1c0.3,0.8,0.5,1.7,0.7,2.6c0.2,0.9,0.3,1.7,0.6,2.5c0.2,0,0.7,0,1,0
				c1.2,0,1.3,0,1.3,0.1c0.1,0.3,0.1,1.9,0.1,2.6c-0.1,2.2-0.2,2.3-0.3,2.3C263.3,174,261.4,174.6,259.6,174.6z M253.2,170.2
				c0.4,0.6,2,3.1,4.8,3.9c2.2,0.6,4.5,0,7.1-1.7c0.1-0.5,0.3-3.8,0.1-4.4c-0.2,0-0.7,0-1,0c-1.2,0-1.3,0-1.3-0.1
				c-0.3-0.8-0.5-1.7-0.7-2.6c-0.2-0.9-0.3-1.7-0.6-2.5c-0.1,0-0.2,0.1-0.4,0.2c-0.4,0.2-0.6,0.4-0.8,0.2c-0.3-0.2-0.7-0.2-1-0.1
				c-0.8,0.1-1.6,0.4-2.4,0.8c0,0.4,0.1,0.9,0.1,1.3c0.1,0.9,0.2,1.9,0.1,3.2c0,0.1,0,0.1-0.1,0.2C255,169.2,253.6,170,253.2,170.2z
				 M265,172.4L265,172.4L265,172.4z M256.9,168.3L256.9,168.3L256.9,168.3z"/>
		</g>
		<g>
			<path class="st1" d="M250.7,151.1c0.2,1.8,0.6,3.7,0.1,5.6c-0.3,1-0.2,6,3.8,7.5c2.1,0.8,4.6,0.6,6.8-0.7
				c1.5-0.9,3.3-3.7,2.9-6.5c1.2,0.3,2.5-0.5,2.5-1.6c0-0.6-0.7-1.4-1.4-1.4c-0.6,0-0.6,0-1.1,0.4c-0.3-1.3-0.5-2.6-0.5-4.1
				c-1.4-1.5-3.6-2.3-5.9-2.7c-0.7-0.1-1.5-0.2-2.3-0.1C253.6,147.7,250.5,149.3,250.7,151.1z"/>
			<path d="M257.3,164.8c-0.9,0-1.8-0.2-2.7-0.5c-4.1-1.4-4.2-6.5-3.9-7.7c0.4-1.6,0.2-3.2-0.1-4.8c0-0.2-0.1-0.4-0.1-0.7l0,0
				c-0.1-0.5,0.1-1.1,0.5-1.6c1-1.3,3.1-2.1,4.7-2.3c0.8-0.1,1.7,0,2.3,0.1c1.9,0.3,4.4,1,6,2.7v0.1c0,1.3,0.1,2.5,0.4,3.8
				c0.3-0.2,0.5-0.2,1-0.2c0.4,0,0.8,0.1,1.1,0.5c0.3,0.3,0.5,0.8,0.5,1.1c0,0.5-0.3,1.1-0.8,1.4c-0.5,0.4-1.1,0.5-1.7,0.4
				c0.2,2.8-1.6,5.5-3,6.4C260.2,164.4,258.8,164.8,257.3,164.8z M256.5,147.6c-0.2,0-0.5,0-0.7,0c-1.5,0.2-3.5,1-4.4,2.2
				c-0.3,0.4-0.5,0.9-0.4,1.3l0,0c0,0.2,0.1,0.4,0.1,0.7c0.2,1.6,0.5,3.3,0,5c-0.2,0.7-0.4,5.8,3.7,7.3c2.2,0.8,4.6,0.5,6.6-0.7
				c1.4-0.8,3.2-3.6,2.9-6.3c0-0.1,0-0.1,0.1-0.2c0,0,0.1-0.1,0.2,0c0.6,0.2,1.2,0,1.6-0.3s0.6-0.7,0.6-1.1c0-0.3-0.2-0.6-0.4-0.9
				c-0.3-0.2-0.6-0.4-0.8-0.4c-0.6,0-0.6,0-1,0.3c0,0-0.1,0-0.2,0s-0.1-0.1-0.1-0.1c-0.3-1.4-0.5-2.8-0.5-4.1
				c-1.5-1.6-4-2.3-5.7-2.6C257.5,147.6,257,147.6,256.5,147.6z"/>
		</g>
		<g>
			<path d="M259.6,158.6c-0.6,0-1.2-0.2-1.7-0.6c-0.6-0.5-0.9-1.2-1-1.9c-0.2-1.6,0.8-3.1,2.3-3.2c1.5-0.2,2.8,1,3,2.6
				s-0.8,3.1-2.3,3.2C259.8,158.6,259.7,158.6,259.6,158.6z M259.5,153.1c-0.1,0-0.2,0-0.3,0c-1.3,0.2-2.1,1.4-2,2.8
				c0.1,0.7,0.4,1.3,0.9,1.7s1.1,0.6,1.7,0.5c1.3-0.2,2.1-1.4,2-2.8C261.6,154,260.6,153.1,259.5,153.1z"/>
		</g>
		<g>
			<path d="M252.3,158.9c-0.6,0-1.2-0.2-1.7-0.6c-0.6-0.5-0.9-1.2-1-1.9c-0.2-1.6,0.8-3.1,2.3-3.2c0.7-0.1,1.4,0.1,2,0.6
				s0.9,1.2,1,1.9l0,0c0.2,1.6-0.8,3.1-2.3,3.2C252.5,158.9,252.4,158.9,252.3,158.9z M252.1,153.4c-0.1,0-0.2,0-0.3,0
				c-1.3,0.2-2.1,1.4-2,2.8c0.1,0.7,0.4,1.3,0.9,1.7s1.1,0.6,1.7,0.5c1.3-0.2,2.1-1.4,2-2.8l0,0c-0.1-0.7-0.4-1.3-0.9-1.7
				C253.2,153.6,252.7,153.4,252.1,153.4z"/>
		</g>
		<g>
			<path d="M266,140c-0.7-2.5-3.4-3.9-5.8-3.1c-2.5,0.7-3.9,3.4-3.1,5.8c0.7,2.5,3.4,3.9,5.8,3.1C265.4,145,266.8,142.4,266,140z"/>
		</g>
		<g>
			<path d="M264.2,154.5c-1.2-1.8-1.9-3.2-2.3-5.4c-4.4,2.6-8.5,3-12.7,2.8c-0.1-0.7,0.1-2.3,0.4-3c0.7-1.7,1.6-3.1,4.2-4.2
				c1.8-0.8,4.2-1.3,6.1-1s3.5,1.3,4.9,2.5c1.1,1,2,2.6,2.3,4.2c0.3,1.4-0.1,2.4-0.7,3.8c-0.3-0.2-0.7-0.4-1.1-0.3
				C264.8,154,264.5,154.2,264.2,154.5z"/>
		</g>
		<g>
			<path d="M257.9,161.5c-0.3,0-0.6-0.1-0.8-0.3c-0.1-0.1-0.1-0.2,0-0.2c0.1-0.1,0.2-0.1,0.2,0c0.3,0.2,0.7,0.3,1.2,0.1
				s0.9-0.6,1.1-1.1c0-0.1,0.1-0.1,0.2-0.1s0.1,0.1,0.1,0.2c-0.3,0.6-0.8,1.1-1.3,1.3C258.3,161.5,258.1,161.5,257.9,161.5z"/>
		</g>
		<g>
			<path d="M259.4,155.8c0-0.2-0.2-0.4-0.5-0.4c-0.2,0-0.4,0.2-0.4,0.5c0,0.2,0.2,0.4,0.5,0.4C259.3,156.2,259.4,156,259.4,155.8z"
				/>
		</g>
		<g>
			<path d="M252.9,156.1c0-0.2-0.2-0.4-0.5-0.4c-0.2,0-0.4,0.2-0.4,0.5c0,0.2,0.2,0.4,0.5,0.4C252.7,156.5,252.9,156.3,252.9,156.1z
				"/>
		</g>
		<g>
			<path d="M255.3,158.8L255.3,158.8l-0.7-0.2c-0.1,0-0.2-0.1-0.3-0.2c-0.1-0.2,0-0.3,0.1-0.4c0.4-0.6,0.6-1.4,0.4-2.1
				c0-0.1,0-0.2,0.1-0.2s0.2,0,0.2,0.1c0.2,0.8,0.1,1.7-0.5,2.4c0,0,0,0,0,0.1c0,0,0,0,0.1,0l0.6,0.2c0.1,0,0.1,0.1,0.1,0.2
				C255.5,158.8,255.4,158.8,255.3,158.8z"/>
		</g>
		<g>
			<path d="M254.6,155.2c-0.1,0-0.2-0.1-0.2-0.2c0-0.4,0.4-0.7,0.8-0.8c0.7-0.2,1.4,0,1.9,0.4c0.1,0.1,0.1,0.2,0,0.2
				c-0.1,0.1-0.2,0.1-0.2,0c-0.4-0.4-1-0.5-1.6-0.4c-0.3,0.1-0.5,0.3-0.5,0.5C254.7,155.2,254.7,155.2,254.6,155.2L254.6,155.2z"/>
		</g>
		<g>
			<path d="M261.8,154.6c-0.1,0-0.2-0.1-0.2-0.2c0-0.1,0.1-0.2,0.2-0.2h2.2l0,0c0.1,0,0.2,0.1,0.2,0.2c0,0.1-0.1,0.2-0.2,0.2H261.8
				L261.8,154.6z"/>
		</g>
		<g>
			<path d="M264.4,156L264.4,156c-0.1,0-0.2-0.1-0.2-0.2c0-0.5-0.1-1.1-0.3-1.5c0-0.1,0-0.2,0.1-0.2s0.2,0,0.2,0.1
				c0.2,0.5,0.3,1.1,0.3,1.7C264.6,156,264.5,156,264.4,156z"/>
		</g>
		<g>
			<g>
				<path class="st2" d="M280.2,185.2c-1.9-5.2-3-10.4-7.5-14.1c-2.2-1.8-4.8-3.1-7.8-3.3c-0.2,2.9-3.6,4.8-5.4,5
					c-1,0.1-4.6,0.6-4.6-3.7c-1.2,0.5-5.2,1-6.8,5.9c-0.7,2-1.8,9.7-5.7,14.1c-0.9,1-1.7-5.9-3.1-5.5c-1.3,0.5-2.8,1.2-2.9,2.6
					c-0.1,1.1,0.8,2,1.8,2.4c2.1,0.9,2.9,5.3,5.1,5.6c2.3,0.3,6.1,1.2,8.9-7.7c1.5,1.5,2.4,3,4,3.9c4.7,2.5,20.3,5.4,22.8,5.8
					c0.2,0,0.7-0.1,0.8-0.3C280.6,194.6,282,190.1,280.2,185.2z"/>
				<path d="M279.3,196.4L279.3,196.4c-3.1-0.5-18.3-3.3-23-5.8c-1.1-0.6-1.9-1.5-2.8-2.5c-0.3-0.4-0.7-0.8-1.1-1.2
					c-1.2,3.7-2.7,6-4.5,7c-1.6,0.9-3.1,0.7-4.3,0.5h-0.2c-1.3-0.2-2.1-1.6-2.9-2.9c-0.7-1.1-1.3-2.3-2.3-2.7s-2-1.4-1.9-2.6
					c0.1-1.2,1.1-2,3-2.7c0.1-0.1,0.3,0,0.4,0c0.6,0.3,1.1,1.7,1.5,3.2c0.3,0.9,0.7,2.3,1,2.3c0,0,0,0,0.1,0
					c3.1-3.5,4.4-9.2,5.2-12.3c0.2-0.8,0.3-1.4,0.5-1.8c1.4-4.3,4.7-5.3,6.2-5.8c0.3-0.1,0.5-0.1,0.6-0.2c0.1,0,0.1,0,0.2,0l0.1,0.1
					c0,1.3,0.3,2.3,1,2.9c1.1,1,2.8,0.8,3.4,0.7l0,0c1.7-0.2,5-2.1,5.2-4.9c0,0,0-0.1,0.1-0.1h0.1c2.8,0.2,5.5,1.3,7.9,3.3
					c3.8,3.1,5.1,7.2,6.6,11.5c0.3,0.9,0.6,1.8,0.9,2.7c1.6,4.5,0.7,8.9-0.1,10.8C280.1,196.2,279.6,196.4,279.3,196.4z
					 M252.4,186.3c0,0,0.1,0,0.1,0.1c0.5,0.5,0.9,1,1.3,1.4c0.8,1,1.6,1.9,2.7,2.4c4.6,2.5,19.8,5.3,22.8,5.8c0.2,0,0.5-0.1,0.6-0.2
					c0.1-0.2,2.1-5.1,0.1-10.6l0,0c-0.3-0.9-0.6-1.8-0.9-2.7c-1.4-4.2-2.8-8.3-6.5-11.3c-2.3-1.9-4.8-3-7.5-3.2
					c-0.3,2.9-3.7,4.8-5.5,5l0,0c-0.7,0.1-2.5,0.3-3.7-0.8c-0.7-0.6-1.1-1.6-1.1-2.9c-0.1,0-0.3,0.1-0.4,0.1c-1.6,0.5-4.7,1.4-6,5.5
					c-0.1,0.4-0.3,1-0.5,1.8c-0.7,3.1-2.1,8.8-5.2,12.4c-0.1,0.2-0.3,0.2-0.4,0.2c-0.4-0.1-0.7-1-1.2-2.6c-0.4-1.2-0.9-2.8-1.3-3
					c-0.1,0-0.1,0-0.2,0c-1.8,0.6-2.7,1.4-2.7,2.4c-0.1,1,0.8,1.9,1.7,2.2c1,0.4,1.7,1.6,2.4,2.8c0.8,1.3,1.5,2.6,2.7,2.8h0.2
					C246.2,194.2,249.7,194.7,252.4,186.3C252.3,186.4,252.3,186.3,252.4,186.3L252.4,186.3z"/>
			</g>
		</g>
		<g>
			<path class="st1" d="M274.6,190.2c-4.3-0.2-8.6-0.5-12.9-0.8c-0.4-0.1-2.3-0.3-2.8-0.4c-0.4-0.1-0.8-0.2-1.2-0.4
				c-1.3-0.6-4-1.8-4.6-1.4c-1.4,0.4-2.7,1.4-3.7,2.7c-0.6,0.7-1,1.9-0.8,2.1c0.1,0.1,0.4,0.2,0.5,0c0.7-1.4,1.9-2.6,3.3-3.3
				c-0.7,0.4-1.3,0.8-1.8,1.4c-0.6,0.5-1.1,1.2-1.2,1.9c0,0.1,0,0.1,0,0.2c0.1,0.1,0.3,0.1,0.4,0c0.2-0.2,3.2-2.6,3.7-2.5
				c-0.7,0.3-3.3,2.4-3.4,2.6c0,0.1,0,0.2,0.1,0.3s0.3,0.2,0.4,0.1c0.1,0,0.3-0.1,0.4-0.2c0.8-0.5,1.6-1.2,2.5-1.5
				c0.5-0.2,1-0.3,1.4,0c-0.8,0.3-1.6,0.8-2.2,1.3c-0.1,0.1-0.2,0.2-0.3,0.3c-0.1,0.2-0.2,0.4-0.1,0.6c0.2,0.2,0.4,0.1,0.6,0
				c0.8-0.5,1.6-0.9,2.4-1.3c0.3-0.1,0.6-0.2,0.8,0c0.2,0.1,1.2,0.7,3.2,0.8c0.7,0,1.4,0.2,2.2,0.5c11.4,3.1,14.7,4.4,17.5,3.2
				c0.5-0.2,0.7-0.5,0.5-1.4C279.3,192.6,278.8,191.2,274.6,190.2z"/>
			<path d="M276.9,197.1c-2.2,0-5.3-0.9-11.1-2.5c-1.2-0.3-2.6-0.7-4.1-1.1c-0.8-0.2-1.5-0.4-2.2-0.4c-1.9-0.1-2.9-0.6-3.3-0.9
				c-0.2-0.1-0.4,0-0.6,0.1c-0.8,0.3-1.6,0.7-2.4,1.3l0,0c-0.2,0.1-0.5,0.3-0.8,0c-0.2-0.2-0.1-0.4,0-0.8c0.1-0.1,0.2-0.3,0.3-0.4
				c0.5-0.5,1.1-0.9,1.8-1.2c-0.3,0-0.6,0.1-0.9,0.2c-0.6,0.2-1.1,0.6-1.7,1c-0.3,0.2-0.5,0.4-0.8,0.5c-0.1,0.1-0.3,0.2-0.5,0.2
				s-0.4,0-0.6-0.2c-0.1-0.1-0.1-0.3-0.1-0.4l0,0l-0.1,0.1c-0.1,0-0.2,0.2-0.4,0.1c-0.1,0-0.2-0.1-0.2-0.1v-0.1
				c-0.2,0.1-0.5,0.1-0.7-0.1c-0.4-0.3,0.3-1.8,0.8-2.4c1.1-1.4,2.4-2.4,3.8-2.8c0.8-0.4,3.6,0.9,4.8,1.4c0.3,0.1,0.7,0.3,1.1,0.4
				c0.1,0,0.4,0.1,0.6,0.1c0.8,0.1,1.8,0.3,2.1,0.3c4.2,0.3,8.6,0.6,12.9,0.8l0,0c4.3,1,4.8,2.5,5.3,5c0.2,0.9,0,1.3-0.6,1.6
				C278.6,197,277.8,197.1,276.9,197.1z M256,191.8c0.1,0,0.3,0,0.4,0.1c0.3,0.2,1.3,0.7,3.1,0.8c0.7,0,1.4,0.2,2.3,0.5
				c1.5,0.4,2.9,0.8,4.1,1.1c8.2,2.3,10.9,3.1,13.2,2.1c0.4-0.2,0.6-0.4,0.4-1.2c-0.5-2.4-0.9-3.8-5-4.7c-4.3-0.2-8.7-0.5-12.9-0.8
				l0,0c-0.3,0-1.4-0.2-2.1-0.3c-0.3,0-0.5-0.1-0.6-0.1c-0.5-0.1-0.9-0.2-1.2-0.4c-2.3-1-4.1-1.6-4.5-1.4l0,0
				c-1.3,0.4-2.6,1.3-3.6,2.7c-0.6,0.7-0.9,1.7-0.8,1.9c0.1,0.1,0.2,0.1,0.3,0.1c0.7-1.4,1.9-2.6,3.4-3.3c0.1,0,0.2,0,0.2,0.1
				s0,0.2-0.1,0.2c-0.7,0.4-1.3,0.8-1.8,1.3c-0.7,0.6-1.1,1.2-1.2,1.8l0,0c0,0,0.1,0,0.1-0.1c0,0,0.1,0,0.1-0.1
				c3.2-2.5,3.6-2.5,3.8-2.5c0.1,0,0.1,0.1,0.2,0.2c0,0.1,0,0.2-0.1,0.2c-0.7,0.3-3,2.2-3.2,2.5c0,0.1,0,0.1,0,0.2
				c0,0.1,0.1,0.1,0.2,0.1c0.1,0,0.2-0.1,0.3-0.2c0.3-0.2,0.6-0.4,0.8-0.5c0.5-0.4,1.1-0.7,1.7-1c0.6-0.3,1.2-0.3,1.6,0
				c0.1,0,0.1,0.1,0.1,0.2c0,0.1-0.1,0.1-0.1,0.1c-0.8,0.3-1.5,0.8-2.2,1.3c-0.1,0.1-0.2,0.2-0.2,0.3c-0.1,0.2-0.1,0.3-0.1,0.4
				c0.1,0.1,0.2,0.1,0.4,0l0,0c0.8-0.5,1.6-1,2.4-1.3C255.6,191.8,255.8,191.8,256,191.8z"/>
		</g>
		<g>
			<g>
				<path d="M246.2,195.7c3.6,0.1,7.1,0.2,10.7,0.2v-1.8l-11.9-0.3L246.2,195.7z"/>
			</g>
			<g>
				<g>
					<polygon class="st1" points="215.9,179.2 239.1,179.3 247.1,195.7 224.2,195.7 					"/>
					<path d="M247.1,195.9L247.1,195.9l-23-0.1c-0.1,0-0.1,0-0.2-0.1l-8.2-16.5c0-0.1,0-0.1,0-0.2c0-0.1,0.1-0.1,0.1-0.1l0,0
						L239,179c0.1,0,0.1,0,0.2,0.1l8,16.4c0,0.1,0,0.1,0,0.2C247.2,195.9,247.2,195.9,247.1,195.9z M224.3,195.5l22.6,0.1l-7.8-16.1
						l-22.8-0.1L224.3,195.5z"/>
				</g>
				<g>
					<path class="st1" d="M230.6,185.9c-0.7-0.1-1.4,0.1-1.6,0.7c-0.3,0.6-0.1,1.4,0.4,1.8c0.5,0.4,1.2,0.6,1.9,0.4
						c0.3-0.1,0.7-0.2,0.9-0.5c0.1-0.2,0.2-0.5,0.2-0.7C232.3,186.8,232,186,230.6,185.9z"/>
					<path d="M230.8,189.1c-0.6,0-1.1-0.2-1.5-0.5c-0.6-0.5-0.8-1.4-0.5-2s0.9-0.9,1.8-0.8l0,0c1.6,0.2,1.9,1.1,1.9,1.9
						c0,0.3-0.1,0.6-0.2,0.8c-0.3,0.4-0.7,0.5-1,0.6C231.1,189.1,230.9,189.1,230.8,189.1z M230.4,186c-0.4,0-1,0.1-1.2,0.6
						s-0.1,1.2,0.4,1.6c0.4,0.4,1.1,0.5,1.7,0.4c0.4-0.1,0.6-0.2,0.8-0.5c0.1-0.2,0.2-0.4,0.2-0.6c0-0.9-0.5-1.4-1.6-1.5l0,0
						C230.5,186.1,230.5,186,230.4,186z"/>
				</g>
			</g>
		</g>
		<g>
			<path d="M272,190.2c-0.1,0-0.1,0-0.2-0.1c-1.6-4.9-2.5-8-2.5-14.7c0-0.1,0.1-0.2,0.2-0.2s0.2,0.1,0.2,0.2c0,6.6,0.9,9.7,2.5,14.6
				C272.2,190.1,272.2,190.2,272,190.2C272.1,190.2,272.1,190.2,272,190.2z"/>
		</g>
		<g>
			<path d="M252.4,186.7c-0.1,0-0.1,0-0.1-0.1c-2.1-3-1.5-5.2-1-7.3c0.3-1.1,0.6-2.2,0.5-3.3c0-0.1,0.1-0.2,0.2-0.2
				c0.1,0,0.2,0.1,0.2,0.2c0,1.2-0.2,2.4-0.5,3.4c-0.6,2.1-1.1,4.2,0.9,7c0.1,0.1,0,0.2,0,0.2C252.5,186.7,252.5,186.7,252.4,186.7z
				"/>
		</g>
		<g>
			<path d="M259.2,179.3c-2.1,0-4.2-0.2-6.3-0.7c0,0-0.1,0,0-0.1c0,0,0-0.1,0.1,0c5.2,1.3,10.8,0.5,15.7-0.2h0.1v0.1
				C265.7,178.8,262.5,179.3,259.2,179.3z"/>
		</g>
		<g>
			<path d="M261.1,183.3c-3.1,0-6.2-0.4-9.2-1.1c0,0-0.1,0,0-0.1c0,0,0-0.1,0.1,0c5.5,1.3,11.3,1.5,16.9,0.3h0.1v0.1
				C266.3,183.1,263.7,183.3,261.1,183.3z"/>
		</g>
		<g>
			<path d="M280.5,191.5L280.5,191.5c-2-2.3-5.1-3.5-8.1-2.9h-0.1v-0.1C275.4,188,278.6,189.1,280.5,191.5
				C280.6,191.5,280.6,191.5,280.5,191.5C280.6,191.5,280.6,191.5,280.5,191.5z"/>
		</g>
		<g>
			<path d="M280.2,189.4L280.2,189.4c-0.3-0.1-0.6-0.4-0.8-0.6c-0.1-0.1-0.2-0.2-0.3-0.2c-0.5-0.5-1.2-0.7-1.9-0.8c0,0-0.1,0,0-0.1
				c0,0,0-0.1,0.1,0c0.7,0.1,1.4,0.4,2,0.9c0.1,0.1,0.2,0.2,0.3,0.2c0.2,0.2,0.5,0.4,0.8,0.6C280.2,189.3,280.3,189.4,280.2,189.4
				L280.2,189.4z"/>
		</g>
	</g>
	<g>
		<path d="M280.2,195.8c-0.1,0-0.2-0.1-0.2-0.2c0-0.1,0.1-0.2,0.2-0.2c5.6,0,11.2,0,16.9,0c0.1,0,0.2,0.1,0.2,0.2
			c0,0.1-0.1,0.2-0.2,0.2l0,0C291.4,195.8,285.9,195.8,280.2,195.8L280.2,195.8z"/>
	</g>
	<g>
		<path d="M270.1,195.9L270.1,195.9c-48.6,0-98,0-146.6,0c-0.1,0-0.2-0.1-0.2-0.2c0-0.1,0.1-0.2,0.2-0.2c48.6,0,98,0,146.6,0
			c0.1,0,0.2,0.1,0.2,0.2C270.3,195.8,270.2,195.9,270.1,195.9z"/>
	</g>
	<g>
		<path d="M208.6,195.8L208.6,195.8c-0.1,0-0.2-0.1-0.2-0.2c0.2-2.4-0.1-6.1-0.4-9.7c-0.1-1.7-0.3-3.2-0.3-4.7
			c0-0.1,0.1-0.2,0.2-0.2c0.1,0,0.2,0.1,0.2,0.2c0.1,1.4,0.2,3,0.3,4.7c0.3,3.6,0.6,7.3,0.4,9.8
			C208.7,195.8,208.7,195.8,208.6,195.8z"/>
	</g>
	<g>
		<g>
			<path class="st1" d="M167.7,157.3c-0.5,2.3-0.5,5.5-0.5,5.5l1.4,0.6c0,0,1.3,5.3-6.8,3.7c-1.6-0.3-6.1-3.8-6.1-3.8l3.6-1
				c0,0,0.3-5.2,0.5-7.8C161.5,155.3,165.4,156.6,167.7,157.3z"/>
			<path d="M164.5,167.5c-0.8,0-1.8-0.1-2.8-0.3c-1.6-0.3-6-3.7-6.2-3.8c-0.1,0-0.1-0.1-0.1-0.2c0-0.1,0.1-0.1,0.1-0.1l3.5-1
				c0.1-0.8,0.4-5.4,0.5-7.7c0-0.1,0-0.1,0.1-0.1c0,0,0.1,0,0.2,0c1.8,0.8,5.4,2.1,8,2.9c0.1,0,0.1,0.1,0.1,0.2
				c-0.5,2-0.5,4.8-0.5,5.4l1.2,0.5c0.1,0,0.1,0.1,0.1,0.1c0,0.1,0.4,1.8-0.8,3C167.2,167.1,166,167.5,164.5,167.5z M156,163.3
				c1,0.8,4.5,3.3,5.8,3.5c2.9,0.6,4.9,0.3,5.9-0.7c0.9-0.9,0.7-2.3,0.7-2.6l-1.3-0.5c-0.1,0-0.1-0.1-0.1-0.2c0,0,0-3.1,0.5-5.4
				c-2.5-0.8-5.8-1.9-7.7-2.7c-0.1,2.6-0.5,7.5-0.5,7.6s-0.1,0.1-0.1,0.2L156,163.3z"/>
		</g>
		<g>
			<g>
				<g>
					<path d="M163.7,137.8c-3.6-0.1-7.2,2.2-6.9,4.1c-1.7-0.5-3.7,2.8-3.6,4.4c0.1,2,4,8.6,4.8,9.6c0.4,0.5,0.7,0.7,1.3,0.9
						c0-0.5,0.5-0.9,0.5-1.5c0-0.7-0.9-1.9-0.2-1.9c3.4,0.1,3,0.9,9.5-5.5c0.8-0.8,1.4-2.8,1.6-4.2
						C170.9,142.4,169.9,138.1,163.7,137.8z"/>
					<path d="M159.4,157C159.3,157,159.3,157,159.4,157c-0.8-0.2-1.1-0.5-1.5-1c-0.9-1.1-4.8-7.7-4.8-9.7c-0.1-1.2,1-3.2,2.1-4.1
						c0.5-0.4,1-0.6,1.5-0.5c0-0.5,0.3-1.1,0.8-1.7c1.1-1.2,3.5-2.5,6.3-2.4c2.6,0.1,4.6,0.9,5.8,2.4c1.1,1.3,1.4,2.8,1.3,3.8
						c-0.2,1.6-0.8,3.5-1.6,4.3c-5.9,5.7-6.2,5.7-8.6,5.6c-0.3,0-0.6,0-1,0c-0.1,0-0.1,0-0.1,0c0,0.1,0.1,0.5,0.2,0.7
						c0.1,0.3,0.3,0.7,0.3,1s-0.1,0.6-0.3,0.8c-0.1,0.2-0.2,0.4-0.2,0.7c0,0.1,0,0.1-0.1,0.2C159.4,157,159.4,157,159.4,157z
						 M156.5,142.1c-0.4,0-0.8,0.2-1.1,0.5c-1.2,0.9-2,2.8-2,3.8c0.1,1.9,3.9,8.5,4.8,9.5c0.3,0.4,0.6,0.6,1,0.8
						c0-0.2,0.2-0.4,0.3-0.6c0.1-0.2,0.2-0.4,0.2-0.6c0-0.2-0.1-0.6-0.2-0.8c-0.2-0.4-0.3-0.8-0.1-1c0.1-0.1,0.2-0.2,0.4-0.2
						c0.4,0,0.7,0,1,0c2.4,0.1,2.6,0.1,8.4-5.5c0.8-0.8,1.3-2.6,1.5-4.1c0.1-0.6-0.1-2.1-1.2-3.5c-1.2-1.4-3.1-2.2-5.6-2.3l0,0
						c-2.7-0.1-5,1.1-6,2.3c-0.5,0.6-0.7,1.1-0.7,1.6c0,0.1,0,0.1-0.1,0.2c0,0-0.1,0.1-0.2,0C156.7,142.1,156.6,142.1,156.5,142.1z"
						/>
				</g>
			</g>
			<g>
				<g>
					<path class="st1" d="M169.4,147c0,0-1.2,0.1-2.3-1.4c-0.2,0.8-0.3,1.6-1.9,1.5c-0.8,0-1.9-1.3-2.2-2.1c0,0,1.7-0.4-5.7,2.9
						c0,0.2,0,0.3,0,0.4c0,0.5,0,1.7,0.3,2.8c-1-0.6-1.7-0.4-2.2,0.3c-0.5,0.6-0.3,1.5,0.3,2s1.6,0.5,2.4,0.2
						c0.4,1.4,1.1,4.1,2.3,5.2c1.2,1.2,3.1,1.7,5,1.5s3.7-1.3,4.6-2.7c1.1-1.6,1.1-3.6,0.7-5.3C170.4,150.5,169.6,148.8,169.4,147z"
						/>
					<path d="M164.5,160.6c-1.6,0-3.2-0.6-4.3-1.6s-1.7-3.3-2.2-4.8c0-0.1-0.1-0.2-0.1-0.3c-0.8,0.2-1.8,0.1-2.4-0.3
						c-0.7-0.5-0.9-1.5-0.4-2.2s1.2-0.9,2-0.5c-0.2-1-0.2-1.9-0.2-2.4l0,0c0-0.1,0-0.3,0-0.4c0-0.1,0-0.1,0.1-0.2
						c3.9-1.7,5.2-2.4,5.6-2.7v-0.1l0.1-0.1c0.2,0,0.3,0,0.4,0.1c0,0.1,0,0.1-0.1,0.2c0.4,0.7,1.3,1.7,2,1.7
						c1.4,0.1,1.5-0.5,1.7-1.3v-0.1c0-0.1,0.1-0.1,0.1-0.1c0.1,0,0.1,0,0.2,0.1c0.6,0.8,1.3,1.2,2.1,1.3c0.1,0,0.2,0,0.2,0.2l0,0
						c0.1,1,0.4,2,0.7,2.9c0.2,0.7,0.5,1.5,0.6,2.3c0.5,2.2,0.2,4-0.8,5.5s-2.8,2.6-4.7,2.8C165.1,160.6,164.8,160.6,164.5,160.6z
						 M158.1,153.5L158.1,153.5c0.1,0,0.2,0.1,0.2,0.1c0,0.1,0.1,0.3,0.1,0.5c0.4,1.4,1.1,3.7,2.1,4.6c1.2,1.1,3,1.7,4.9,1.4
						c1.8-0.2,3.6-1.2,4.5-2.6c0.9-1.4,1.1-3.1,0.7-5.2c-0.2-0.8-0.4-1.5-0.6-2.3c-0.3-0.9-0.6-1.9-0.7-2.9
						c-0.8-0.1-1.5-0.4-2.1-1.1c-0.2,0.7-0.5,1.4-2,1.3c-0.8,0-1.8-1.1-2.2-1.9c-0.2,0.1-0.4,0.2-0.7,0.4c-1,0.5-2.6,1.2-4.8,2.2
						c0,0.1,0,0.2,0,0.3l0,0c0,0.5,0,1.7,0.3,2.7c0,0.1,0,0.1-0.1,0.2c-0.1,0-0.1,0-0.2,0c-0.8-0.5-1.5-0.4-1.9,0.2
						c-0.4,0.5-0.3,1.3,0.3,1.7C156.4,153.7,157.2,153.8,158.1,153.5C158,153.5,158.1,153.5,158.1,153.5z M169.2,147.1L169.2,147.1
						L169.2,147.1L169.2,147.1z"/>
				</g>
			</g>
			<g>
				<path d="M168.1,149.9c0-0.2-0.2-0.4-0.4-0.4s-0.4,0.2-0.4,0.4s0.2,0.4,0.4,0.4C167.9,150.3,168.1,150.1,168.1,149.9z"/>
			</g>
			<g>
				<path d="M162.2,151c0-0.2-0.2-0.4-0.4-0.4s-0.4,0.2-0.4,0.4s0.2,0.4,0.4,0.4C162,151.5,162.2,151.3,162.2,151z"/>
			</g>
			<g>
				<path d="M164.7,157.8c-0.5,0-1.1-0.2-1.5-0.6c-0.1-0.1-0.1-0.2,0-0.2c0.1-0.1,0.2-0.1,0.2,0c0.5,0.5,1.3,0.6,2,0.3
					c0.1,0,0.2,0,0.2,0.1s0,0.2-0.1,0.2C165.3,157.7,165,157.8,164.7,157.8z"/>
			</g>
			<g>
				<path d="M165.4,155.4L165.4,155.4c-0.5,0-0.9-0.2-1.2-0.5c-0.1-0.1-0.1-0.2,0-0.2c0.1-0.1,0.2-0.1,0.2,0
					c0.2,0.2,0.5,0.4,0.9,0.4c0.3,0,0.7-0.1,1-0.3c0.1-0.1,0.3-0.1,0.3-0.3c0.1-0.1,0.1-0.3,0-0.5s-0.2-0.3-0.3-0.5l-0.1-0.1
					c-0.7-1-1.1-2.2-1.3-3.4c0-0.1,0.1-0.2,0.2-0.2c0.1,0,0.2,0.1,0.2,0.2c0.2,1.2,0.6,2.3,1.3,3.2l0.1,0.1c0.1,0.2,0.3,0.4,0.3,0.6
					c0.1,0.3,0.1,0.6-0.1,0.9c-0.1,0.2-0.3,0.3-0.5,0.4C166.2,155.3,165.8,155.4,165.4,155.4z"/>
			</g>
			<g>
				<path d="M157.8,152.3c-0.1,0-0.1-0.1-0.2-0.1c-0.1-0.5-0.2-0.7-0.3-1.2c0-0.1,0-0.2,0.1-0.2s0.2,0,0.2,0.1
					c0.1,0.5,0.2,0.7,0.3,1.2C158,152.2,157.9,152.3,157.8,152.3L157.8,152.3z"/>
			</g>
		</g>
		<g>
			<path class="st2" d="M157.8,183.2c0.9-8.1,0.9-16.2,0.2-20.8c-3.2,0.2-8.6,1-10.9,2.9c-4.8,4-4.8,10.3-5.9,16.2
				c-1,5.4-1.5,10.8-0.1,12.7c0.1,0.2,1.2,0.9,1.4,0.8c0.7-0.1,5.3-5,5.3-3.5c0,2.9-0.4,4.1-0.4,4.1h8
				C155.6,195.7,157.5,185.9,157.8,183.2z"/>
			<path d="M155.6,195.8h-8c-0.1,0-0.1,0-0.1-0.1c0,0,0-0.1,0-0.2c0,0,0.4-1.2,0.4-4c0-0.1,0-0.1,0-0.1s-0.2-0.1-1.1,0.6
				c-0.6,0.5-1.3,1.1-2,1.7c-1.1,0.9-1.7,1.5-2,1.5c-0.3,0.1-1.5-0.7-1.6-0.9c-1.6-2.1-0.9-8.1,0-12.8c0.2-1.1,0.4-2.2,0.6-3.4
				c0.7-4.8,1.5-9.7,5.4-13c2.2-1.8,7.3-2.7,11-3c0.1,0,0.2,0.1,0.2,0.2c0.7,5,0.6,13.2-0.2,20.8H158h0.2
				c-0.3,2.7-2.2,12.4-2.2,12.5C155.7,195.8,155.7,195.8,155.6,195.8z M147.8,195.5h7.7c0.2-1.2,1.9-9.8,2.2-12.3l0,0
				c0.9-7.5,1-15.5,0.3-20.6c-3.6,0.3-8.5,1.1-10.6,2.9c-3.8,3.2-4.5,7.8-5.3,12.8c-0.2,1.1-0.3,2.3-0.6,3.4
				c-1.3,6.6-1.3,11-0.1,12.5c0.1,0.1,1.1,0.8,1.3,0.8s1.1-0.8,1.8-1.4c1.8-1.6,3-2.6,3.5-2.3c0.1,0,0.2,0.2,0.2,0.4
				C148.1,193.8,147.9,195,147.8,195.5z"/>
		</g>
		<g>
			<path class="st2" d="M182,191.4c2.5-0.3,4.7-9.6,0.9-10.2c-0.5-0.1-2.7-8.9-7.1-14.5c-2.4-3-7.4-3.7-8.1-4
				c3.2,5.6-1.9,32.9-1.9,32.9h6.7c0,0,1.5-10,1.8-12.4c0.2,1.3,1.9,4.3,3.8,6.6c0.7,0.8,1.4,0.7,1.8,1.1
				C180.5,191.5,181.5,191.5,182,191.4z"/>
			<path d="M172.6,195.8L172.6,195.8h-6.7c-0.1,0-0.1,0-0.1-0.1v-0.1c0.1-0.3,5.1-27.3,1.9-32.7c0-0.1,0-0.1,0-0.2
				c0-0.1,0.1-0.1,0.2,0c0.1,0,0.4,0.1,0.7,0.2c1.6,0.4,5.5,1.3,7.4,3.8c3.1,3.8,5.1,9.3,6.2,12.2c0.4,1,0.7,2,0.9,2.2
				c1.4,0.3,2.2,1.7,2.1,4c-0.1,2.8-1.5,6.4-3.1,6.6c-0.6,0.1-1.6,0.1-2.2-0.5c-0.2-0.2-0.3-0.2-0.6-0.3s-0.8-0.3-1.2-0.8
				c-1.6-1.8-3-4.3-3.6-5.8c-0.4,3.2-1.7,11.4-1.7,11.5C172.7,195.8,172.7,195.8,172.6,195.8z M166.1,195.5h6.3
				c0.2-1.3,1.5-10.1,1.8-12.2c0-0.1,0.1-0.2,0.2-0.2c0.1,0,0.2,0.1,0.2,0.1c0.2,1.3,2,4.3,3.8,6.5c0.4,0.5,0.7,0.6,1.1,0.7
				c0.3,0.1,0.5,0.2,0.7,0.4c0.5,0.5,1.5,0.4,1.9,0.4v0.2v-0.2c1.3-0.2,2.7-3.3,2.8-6.2c0-1-0.1-3.3-1.9-3.6c-0.2,0-0.4-0.4-1.1-2.4
				c-1.1-2.9-3.1-8.3-6.1-12.1c-1.9-2.4-5.7-3.3-7.3-3.7c-0.1,0-0.3-0.1-0.4-0.1C170.8,169.2,166.6,192.8,166.1,195.5z M183,181.1
				L183,181.1L183,181.1z"/>
		</g>
		<g>
			<path d="M149.4,189.7C149.4,189.7,149.3,189.7,149.4,189.7c-0.1,0-0.2-0.1-0.2-0.2c0.7-2.5,1.1-5.2,1.6-8.8
				c0.4-2.5,0.8-5.6,1.5-9.5c0-0.1,0.1-0.2,0.2-0.1c0.1,0,0.2,0.1,0.1,0.2c-0.7,3.9-1.1,7-1.5,9.5c-0.6,3.6-1,6.3-1.6,8.8
				C149.5,189.7,149.4,189.7,149.4,189.7z"/>
		</g>
		<g>
			<path d="M174.4,183.5c0,0-0.1,0-0.1-0.1s-0.1-0.1,0-0.2c0.1-0.3,0.3-2.7,0.5-5.1c0.1-1.6,0.3-3.3,0.4-4.9c0-0.1,0.1-0.2,0.2-0.2
				c0.1,0,0.2,0.1,0.2,0.2c-0.1,1.5-0.3,3.3-0.4,4.9c-0.4,5.2-0.4,5.2-0.5,5.3C174.5,183.5,174.4,183.5,174.4,183.5z M174.3,183.2
				L174.3,183.2L174.3,183.2z M174.3,183.2L174.3,183.2L174.3,183.2z"/>
		</g>
		<g>
			<path d="M141,189.6C140.9,189.6,140.9,189.6,141,189.6c-0.1,0-0.1-0.1,0-0.1c1.8-1.8,4.8-2.7,7.6-2.3c0,0,0.1,0,0,0.1
				c0,0,0,0.1-0.1,0C145.8,186.9,142.8,187.8,141,189.6L141,189.6z"/>
		</g>
		<g>
			<path d="M141.2,190.5C141.2,190.5,141.1,190.5,141.2,190.5c-0.1-0.1-0.1-0.1,0-0.1c0.3-0.1,0.6-0.4,0.8-0.6
				c0.1-0.1,0.2-0.2,0.3-0.2c0.6-0.5,1.3-0.8,2.1-0.9h0.1v0.1c-0.7,0.1-1.4,0.4-2,0.9c-0.1,0.1-0.2,0.2-0.3,0.2
				C141.8,190.1,141.5,190.4,141.2,190.5L141.2,190.5z"/>
		</g>
		<g>
			<path d="M164.3,169.2c-1.5,0-3-0.3-4.3-1c0,0,0,0,0-0.1c0,0,0,0,0.1,0c1.8,0.9,3.8,1.2,5.7,0.9c1-0.2,1.7-0.5,2.2-1h0.1v0.1
				c-0.5,0.5-1.2,0.9-2.3,1.1C165.3,169.2,164.8,169.2,164.3,169.2z"/>
		</g>
		<g>
			<g>
				<path class="st1" d="M192.8,173.8c1.6-1.6,0.9-2.7,2.7-4.8c0.7-0.9,1.5-1.6,2.1-2.3c0.3-0.4,0.7-0.8,1-0.5
					c0.4,0.4,0,1.3-0.3,1.6c-0.8,1.2-0.8,1.6-0.7,2c1.4-1.1,3.6-2.5,5.2-3.1c0.1,0,0.4,0,0.5,0.1c0.1,0.2,0,0.5-0.2,0.7
					c-1,0.7-2.5,1.7-3.5,2.4c1.8-1.1,4.2-2.6,4.6-2.1c0.1,0.1,0.1,0.6-0.2,0.7c-1.1,0.8-2.5,1.8-3.6,2.6c0.9-0.8,3.8-2.5,4-1.9
					s-2.4,2.3-3.6,3c0.9-0.6,3-1.9,3.3-1.3c0.2,0.4-0.5,0.8-0.7,1c-1.7,1.3-3.7,3.1-5.5,3.8c-0.4,0.2-1.1,0.2-1.5,0.5
					s-0.6,0.6-0.9,1c-9.1,10.4-12,13.9-13.6,13.6c-1.4-0.3-0.4-5.9,1.1-9.6C183.7,181.3,189.4,177.2,192.8,173.8z"/>
				<path d="M182.1,191c-0.1,0-0.2,0-0.3,0c-0.2,0-0.4-0.2-0.5-0.4c-0.7-1.4,0.2-6,1.4-9.4c0-0.1,0.1-0.1,0.2-0.1l0,0
					c0.7,0,6.3-4,9.7-7.4c0.8-0.8,1-1.4,1.2-2.1c0.3-0.7,0.5-1.6,1.5-2.6c0.7-0.8,1.4-1.6,2.1-2.3c0-0.1,0.1-0.1,0.1-0.2
					c0.3-0.3,0.7-0.7,1.1-0.4c0.5,0.5,0,1.5-0.2,1.9c-0.6,0.8-0.7,1.3-0.7,1.6c1.5-1.1,3.5-2.4,5-2.9c0.2-0.1,0.6,0,0.7,0.2
					c0.1,0.1,0.1,0.2,0.1,0.4s-0.1,0.4-0.3,0.6c-0.1,0.1-0.2,0.1-0.3,0.2c0.8-0.4,1.3-0.4,1.5-0.2c0.1,0.1,0.1,0.3,0.1,0.4
					c0,0.2-0.2,0.4-0.3,0.6c-0.1,0.1-0.3,0.2-0.5,0.3c0.3-0.1,0.5-0.1,0.7-0.1c0.1,0,0.2,0.1,0.3,0.2c0.1,0.1,0.2,0.5-1,1.4
					c0.2-0.1,0.4-0.1,0.5,0c0.1,0,0.2,0.1,0.2,0.2c0.2,0.5-0.4,0.9-0.6,1.1c0,0-0.1,0-0.1,0.1c-0.3,0.3-0.7,0.5-1,0.8
					c-1.4,1.2-3.1,2.5-4.6,3c-0.2,0.1-0.3,0.1-0.5,0.1c-0.3,0.1-0.7,0.2-0.9,0.3c-0.3,0.2-0.4,0.4-0.7,0.7c-0.1,0.1-0.2,0.2-0.3,0.3
					c-0.9,1-1.7,1.9-2.4,2.7C186.3,188.1,183.7,191,182.1,191z M183.1,181.4c-1.2,3.2-2.1,7.8-1.4,9c0.1,0.1,0.2,0.2,0.3,0.3
					c1.4,0.3,4-2.7,11.1-10.8c0.7-0.9,1.5-1.8,2.4-2.7c0.1-0.1,0.2-0.2,0.3-0.3c0.2-0.3,0.4-0.5,0.7-0.7s0.7-0.3,1-0.4
					c0.2,0,0.4-0.1,0.5-0.1c1.5-0.5,3.1-1.8,4.5-3c0.3-0.3,0.7-0.5,1-0.8c0,0,0.1,0,0.1-0.1c0.2-0.2,0.6-0.5,0.5-0.7l0,0
					c-0.4-0.1-1.6,0.6-2.5,1.1c-0.2,0.1-0.4,0.2-0.5,0.3c-0.1,0-0.2,0-0.2-0.1c-0.1-0.1,0-0.2,0.1-0.2l0,0c0.2-0.1,0.3-0.2,0.5-0.3
					c2.5-1.6,3-2.3,3-2.4c-0.1,0-0.5,0-1.6,0.6c-0.3,0.2-0.7,0.4-1,0.6c-0.4,0.3-0.8,0.5-1.1,0.8c-0.1,0.1-0.2,0-0.2,0
					c-0.1-0.1,0-0.2,0-0.2c0.2-0.2,0.6-0.5,1.1-0.8c0.2-0.2,0.5-0.3,0.7-0.5c0.6-0.4,1.3-0.9,1.8-1.3c0.1-0.1,0.2-0.2,0.2-0.3
					s0-0.1,0-0.2c0,0-0.2-0.2-1.5,0.5c-0.9,0.4-1.9,1.1-2.8,1.7c-0.1,0.1-0.2,0-0.2-0.1c-0.1-0.1,0-0.2,0-0.2
					c0.5-0.4,1.1-0.8,1.7-1.2c0.6-0.4,1.2-0.9,1.7-1.2c0.2-0.1,0.2-0.4,0.2-0.5c0,0-0.3-0.1-0.3,0c-1.6,0.5-3.7,1.9-5.2,3
					c-0.1,0-0.1,0-0.2,0c-0.1,0-0.1-0.1-0.1-0.1l0,0c0-0.5-0.1-0.9,0.7-2.1c0.2-0.4,0.6-1.2,0.3-1.4c-0.1-0.1-0.3-0.1-0.6,0.3
					c-0.1,0.1-0.1,0.1-0.2,0.2c-0.7,0.7-1.4,1.5-2.1,2.3c-0.9,1-1.1,1.8-1.4,2.5c-0.3,0.7-0.5,1.4-1.3,2.3
					C189.8,177.1,184.3,181.1,183.1,181.4z"/>
			</g>
			<g>
				<path d="M197.5,173.7c-0.1,0-0.1,0-0.1-0.1c-0.1-0.1-0.1-0.2,0-0.2c0.6-0.5,0.9-1.5,0.6-2.3c-0.1-0.1-0.1-0.3-0.2-0.4
					c-0.1-0.2-0.2-0.4-0.3-0.7c0-0.1,0-0.2,0.1-0.2s0.2,0,0.2,0.1c0.1,0.2,0.2,0.4,0.3,0.6c0.1,0.2,0.2,0.3,0.2,0.5
					c0.4,0.9,0.1,2-0.7,2.7C197.6,173.6,197.6,173.7,197.5,173.7z"/>
			</g>
		</g>
		<g>
			<path d="M179.6,190L179.6,190c-0.4-2.5-0.1-5.1,0.9-7.4c0,0,0,0,0.1,0c0,0,0,0,0,0.1C179.7,184.9,179.3,187.5,179.6,190
				C179.7,189.9,179.7,190,179.6,190L179.6,190z"/>
		</g>
		<g>
			<path d="M178.5,189.6L178.5,189.6c-0.3-0.9-0.3-1.8-0.1-2.7c0,0,0-0.1,0.1,0c0,0,0.1,0,0,0.1
				C178.3,187.7,178.3,188.6,178.5,189.6C178.6,189.5,178.6,189.6,178.5,189.6L178.5,189.6z"/>
		</g>
		<g>
			<path class="st1" d="M147.9,189.5c4.5,0.8,9,1.5,13.5,2.2c0.4,0,2.5,0.2,3,0.2c0.4,0,0.9,0,1.3-0.1c1.5-0.3,4.6-0.9,5.1-0.4
				c1.4,0.8,2.4,2.1,3.2,3.7c0.4,0.9,0.6,2.2,0.3,2.4c-0.2,0.1-0.4,0.1-0.6-0.1c-0.4-1.6-1.3-3.1-2.6-4.1c0.6,0.5,1.1,1.2,1.6,1.8
				c0.5,0.7,0.8,1.5,0.8,2.3c0,0.1,0,0.1-0.1,0.2c-0.1,0.1-0.3,0-0.4-0.1c-0.2-0.2-2.7-3.4-3.3-3.5c0.7,0.5,2.9,3.3,2.8,3.5
				c0,0.1-0.1,0.2-0.2,0.3c-0.1,0.1-0.3,0.1-0.4,0c-0.1-0.1-0.3-0.2-0.4-0.3c-0.7-0.7-1.4-1.6-2.2-2.2c-0.4-0.3-1-0.5-1.5-0.3
				c0.8,0.5,1.4,1.1,2,1.9c0.1,0.1,0.1,0.3,0.2,0.4c0.1,0.2,0.1,0.5-0.1,0.6c-0.3,0.2-0.5,0-0.6-0.1c-0.7-0.7-1.4-1.3-2.2-1.9
				c-0.2-0.2-0.5-0.3-0.8-0.2c-0.2,0.1-1.4,0.5-3.5,0.1c-0.7-0.1-1.4-0.1-2.4-0.1c-12.5,0.6-16.2,1.1-18.8-0.8
				c-0.5-0.4-0.6-0.7-0.2-1.6C142.5,190.9,143.3,189.6,147.9,189.5z"/>
			<path d="M169.7,198.2c-0.2,0-0.4-0.2-0.5-0.3l0,0c-0.7-0.7-1.4-1.3-2.2-1.9c-0.2-0.1-0.5-0.3-0.7-0.2c-0.4,0.2-1.6,0.5-3.6,0.1
				c-0.7-0.1-1.5-0.1-2.4,0c-1.7,0.1-3.2,0.2-4.5,0.2c-9.1,0.5-12.1,0.6-14.4-1.1c-0.6-0.4-0.7-0.9-0.3-1.8c1.1-2.5,1.9-3.9,6.6-3.9
				l0,0c4.5,0.8,9.1,1.5,13.5,2.2c0.3,0,1.4,0.1,2.3,0.2c0.3,0,0.6,0,0.7,0.1c0.4,0,0.9,0,1.2-0.1c1.4-0.3,4.6-0.9,5.3-0.3
				c1.3,0.7,2.4,2,3.2,3.8c0.4,0.8,0.7,2.4,0.2,2.6c-0.3,0.1-0.6,0.1-0.7-0.1c0,0,0,0.1-0.1,0.1c-0.1,0.1-0.2,0.1-0.2,0.1
				c-0.2,0-0.3-0.1-0.4-0.2c0,0,0-0.1-0.1-0.1l0,0v0.1c0,0.2-0.1,0.3-0.2,0.4c-0.2,0.1-0.4,0.2-0.6,0.1c-0.2-0.1-0.3-0.2-0.4-0.3
				c-0.3-0.2-0.5-0.5-0.7-0.8c-0.5-0.5-0.9-1-1.5-1.4c-0.2-0.2-0.6-0.4-0.9-0.4c0.7,0.5,1.2,1.1,1.6,1.7c0.1,0.1,0.2,0.3,0.2,0.4
				c0.1,0.4,0.1,0.7-0.1,0.8C170,198.2,169.8,198.2,169.7,198.2z M166.5,195.5c0.3,0,0.5,0.2,0.7,0.3c0.8,0.5,1.5,1.2,2.2,1.9l0,0
				c0.2,0.2,0.2,0.2,0.4,0.1c0,0,0.1-0.2,0-0.4c0-0.1-0.1-0.2-0.2-0.3c-0.5-0.7-1.1-1.3-1.9-1.9c-0.1,0-0.1-0.1-0.1-0.2
				c0-0.1,0-0.1,0.1-0.1c0.6-0.2,1.2,0.1,1.6,0.4c0.6,0.4,1.1,0.9,1.5,1.4c0.2,0.2,0.5,0.5,0.7,0.7c0.1,0.1,0.2,0.2,0.3,0.2
				s0.2,0,0.3,0c0,0,0.1-0.1,0.1-0.2c-0.1-0.4-2.1-2.9-2.8-3.3c-0.1,0-0.1-0.1-0.1-0.2c0-0.1,0.1-0.1,0.2-0.1c0.2,0,0.6,0.1,3.3,3.4
				l0.1,0.1c0,0.1,0.1,0.1,0.1,0.1s0,0,0-0.1c0-0.7-0.2-1.3-0.8-2.2c-0.4-0.7-1-1.3-1.6-1.8c-0.1-0.1-0.1-0.2,0-0.2
				c0.1-0.1,0.2-0.1,0.2,0c1.3,1,2.3,2.5,2.7,4.2c0.1,0.1,0.2,0.1,0.3,0s0-1.3-0.4-2.2c-0.8-1.6-1.9-2.9-3.1-3.6l0,0
				c-0.3-0.3-2.4-0.1-5,0.4c-0.4,0.1-0.8,0.2-1.3,0.1c-0.1,0-0.4,0-0.7-0.1c-0.8-0.1-2-0.2-2.3-0.2l0,0c-4.4-0.7-9-1.4-13.5-2.2
				c-4.5,0.1-5.2,1.3-6.3,3.7c-0.4,0.9-0.2,1.1,0.2,1.4c2.2,1.6,5.2,1.4,14.2,1c1.3-0.1,2.9-0.1,4.5-0.2c0.9,0,1.7-0.1,2.4,0.1
				c1.9,0.3,3,0,3.4-0.1C166.4,195.5,166.4,195.5,166.5,195.5z M172.4,197.5L172.4,197.5L172.4,197.5z"/>
		</g>
	</g>
	<g>
		<g>
			<path class="st1" d="M297.4,185.3c-1.3-0.2-2.5-0.7-3.4-1.7c-2.3-2.3-2.3-6.1,0-8.4c2.1-2.1,5.5-2.3,7.8-0.5l2-2
				c-3.4-2.9-8.6-2.7-11.8,0.5c-3.4,3.4-3.4,8.9,0,12.3c1.5,1.5,3.4,2.3,5.4,2.5V185.3z"/>
			<path d="M297.4,188.3L297.4,188.3c-2.1-0.2-4-1.1-5.5-2.6c-3.5-3.5-3.5-9.1,0-12.6c1.6-1.6,3.7-2.5,5.9-2.6
				c2.2-0.1,4.4,0.6,6.1,2.1l0.1,0.1c0,0,0,0.1-0.1,0.1l-2,2c-0.1,0.1-0.2,0.1-0.2,0c-2.3-1.8-5.6-1.6-7.6,0.5
				c-1.1,1.1-1.7,2.5-1.7,4.1c0,1.5,0.6,3,1.7,4.1c0.9,0.9,2.1,1.5,3.3,1.6c0.1,0,0.2,0.1,0.2,0.2v2.8
				C297.6,188.1,297.6,188.2,297.4,188.3C297.5,188.3,297.4,188.3,297.4,188.3z M298.2,170.9c-2.2,0-4.4,0.8-6.1,2.5
				c-3.3,3.3-3.3,8.8,0,12.1c1.4,1.4,3.2,2.2,5.1,2.5v-2.4c-1.3-0.2-2.5-0.8-3.4-1.7c-1.2-1.2-1.8-2.7-1.8-4.3s0.6-3.2,1.8-4.3
				c2.1-2.1,5.5-2.4,8-0.6l1.7-1.7C301.9,171.5,300.1,170.9,298.2,170.9z"/>
		</g>
		<g>
			<path d="M302.9,175.8c0.8,1.1,1.2,2.4,1.2,3.7l2.8,0.3c0.1-2.1-0.6-4.2-2-5.9L302.9,175.8z"/>
			<path d="M306.9,180L306.9,180l-2.8-0.3c-0.1,0-0.2-0.1-0.2-0.2c0-1.3-0.4-2.5-1.2-3.5c-0.1-0.1,0-0.2,0-0.2l2-2l0.1-0.1
				c0,0,0.1,0,0.1,0.1c1.4,1.7,2.2,3.8,2.1,6.1C307,179.9,307,180,306.9,180C307,179.9,306.9,180,306.9,180z M304.3,179.3l2.4,0.3
				c0-2-0.6-3.9-1.9-5.5l-1.7,1.7C303.8,176.8,304.3,178.1,304.3,179.3z"/>
		</g>
		<g>
			<path class="st2" d="M303.9,181c-0.3,1-0.8,1.9-1.5,2.7c-1,1-2.2,1.5-3.5,1.7v2.8c2-0.2,3.9-1,5.4-2.5c1.2-1.2,2-2.7,2.4-4.3
				L303.9,181z"/>
			<path d="M298.9,188.3h-0.1l-0.1-0.1v-2.8c0-0.1,0.1-0.2,0.2-0.2c1.3-0.2,2.4-0.7,3.4-1.6c0.7-0.7,1.2-1.6,1.5-2.6
				c0-0.1,0.1-0.1,0.2-0.1l2.8,0.3c0,0,0.1,0,0.1,0.1v0.1c-0.4,1.7-1.2,3.2-2.4,4.4C303,187.2,301,188.1,298.9,188.3L298.9,188.3z
				 M299.1,185.5v2.4c1.9-0.2,3.7-1.1,5.1-2.5c1.1-1.1,1.9-2.5,2.3-4l-2.4-0.3c-0.3,1-0.8,1.9-1.5,2.6
				C301.6,184.7,300.4,185.3,299.1,185.5z"/>
		</g>
	</g>
	<g>
		<g>
			<rect x="169.6" y="130.8" transform="matrix(0.9738 -0.2274 0.2274 0.9738 -25.4026 42.3046)" width="2.6" height="1.2"/>
			<path d="M169.8,132.5c-0.1,0-0.2-0.1-0.2-0.1l-0.3-1.2v-0.1l0.1-0.1l2.5-0.6h0.1l0.1,0.1l0.3,1.2c0,0.1,0,0.2-0.1,0.2
				L169.8,132.5C169.8,132.4,169.8,132.5,169.8,132.5z M169.7,131.2l0.2,0.8l2.2-0.5l-0.2-0.8L169.7,131.2z"/>
		</g>
		<g>
			<g>
				<path class="st1" d="M174.4,117.9c-0.8-3.6-4.4-5.8-8-4.8c-3.3,0.9-5.4,4.2-4.8,7.6c0.4,1.8,1.5,3.3,3,4.3
					c1.6,1,2.8,1.6,3.2,3.5l4.4-1c-0.4-1.8,0.3-2.9,1.3-4.5C174.5,121.5,174.9,119.7,174.4,117.9z"/>
				<path d="M167.9,128.6C167.8,128.6,167.8,128.6,167.9,128.6c-0.1-0.1-0.2-0.1-0.2-0.1c-0.4-1.7-1.4-2.3-2.9-3.2
					c-0.1-0.1-0.2-0.1-0.3-0.2c-1.6-1-2.7-2.5-3-4.4c-0.7-3.5,1.4-6.9,4.9-7.8c1.8-0.5,3.6-0.2,5.2,0.8c1.6,0.9,2.6,2.4,3.1,4.2l0,0
					c0.4,1.8,0.1,3.6-0.9,5.1l-0.1,0.2c-1,1.5-1.6,2.5-1.2,4.2v0.1l-0.1,0.1L167.9,128.6L167.9,128.6z M168.1,113.1
					c-0.5,0-1.1,0.1-1.6,0.2c-3.3,0.8-5.3,4.1-4.6,7.4c0.4,1.7,1.4,3.2,2.9,4.1c0.1,0.1,0.2,0.1,0.3,0.2c1.4,0.9,2.5,1.5,3,3.2
					l4-0.9c-0.3-1.7,0.3-2.8,1.3-4.3l0.1-0.2c0.9-1.5,1.2-3.2,0.8-4.9c-0.4-1.7-1.4-3.1-2.9-4C170.4,113.4,169.2,113.1,168.1,113.1z
					"/>
			</g>
		</g>
		<g>
			<path class="st2" d="M167.7,129.4l-0.5-2l5.2-1.2l0.5,2c0.3,1.4-0.6,2.9-2,3.2l0,0C169.4,131.7,168,130.8,167.7,129.4z"/>
			<path d="M170.1,131.7c-0.5,0-0.9-0.1-1.3-0.4c-0.6-0.4-1-0.9-1.1-1.6l-0.5-2.3v-0.1l0.1-0.1l5.2-1.2c0.1,0,0.2,0,0.2,0.1l0.5,2.3
				c0.3,1.4-0.5,2.8-1.9,3.1l-0.5,0.1C170.4,131.7,170.3,131.7,170.1,131.7z M167.4,127.5l0.5,2.2l0,0c0.1,0.6,0.5,1.1,1,1.4
				c0.5,0.3,1.1,0.4,1.7,0.3l0.5-0.1c1.2-0.3,1.9-1.5,1.6-2.7l-0.5-2.2L167.4,127.5z"/>
		</g>
		<g>
			<path d="M168,128.2L168,128.2c-0.1-0.1,0-0.1,0-0.1l4-0.9h0.1v0.1L168,128.2L168,128.2z"/>
		</g>
		<g>
			<path d="M166.6,122.1C166.6,122.1,166.5,122.1,166.6,122.1C166.5,122,166.6,122,166.6,122.1l4-1h0.1v0.1L166.6,122.1L166.6,122.1
				z"/>
		</g>
		<g>
			<path d="M166,110.7c-0.1,0-0.2-0.1-0.2-0.1l-0.6-2.5c0-0.1,0-0.2,0.1-0.2s0.2,0,0.2,0.1l0.6,2.5
				C166.2,110.5,166.1,110.6,166,110.7L166,110.7z"/>
		</g>
		<g>
			<path d="M173.5,111.4C173.4,111.4,173.4,111.4,173.5,111.4c-0.2-0.1-0.2-0.2-0.1-0.3l1.3-2.1c0.1-0.1,0.2-0.1,0.2-0.1
				c0.1,0.1,0.1,0.2,0.1,0.2l-1.3,2.1C173.6,111.4,173.5,111.4,173.5,111.4z"/>
		</g>
		<g>
			<path d="M177.5,116.9c-0.1,0-0.2-0.1-0.2-0.1c0-0.1,0-0.2,0.1-0.2l2.5-0.6c0.1,0,0.2,0,0.2,0.1s0,0.2-0.1,0.2L177.5,116.9
				L177.5,116.9z"/>
		</g>
		<g>
			<path d="M160,114.6L160,114.6l-2.2-1.4c-0.1-0.1-0.1-0.2-0.1-0.2c0.1-0.1,0.2-0.1,0.2-0.1l2.1,1.3c0.1,0.1,0.1,0.2,0.1,0.2
				C160.1,114.6,160.1,114.6,160,114.6z"/>
		</g>
		<g>
			<path d="M156.4,121.8c-0.1,0-0.2-0.1-0.2-0.1c0-0.1,0-0.2,0.1-0.2l2.5-0.6c0.1,0,0.2,0,0.2,0.1s0,0.2-0.1,0.2L156.4,121.8
				L156.4,121.8z"/>
		</g>
		<g>
			<g>
				<path d="M168.8,127c-0.1,0-0.1-0.1-0.2-0.1c0,0-1.3-4.5-3.8-5.9c-0.1,0-0.1-0.2-0.1-0.2c0-0.1,0.2-0.1,0.2-0.1
					c2.6,1.5,3.9,5.9,4,6.1C169,126.9,169,127,168.8,127C168.9,127,168.9,127,168.8,127z"/>
			</g>
			<g>
				<path d="M170.7,126.6c-0.1,0-0.2-0.1-0.2-0.1c0-0.2-0.9-4.7,0.8-7.2c0.1-0.1,0.2-0.1,0.2,0c0.1,0.1,0.1,0.2,0,0.2
					C169.9,121.9,170.7,126.4,170.7,126.6C170.9,126.5,170.8,126.6,170.7,126.6L170.7,126.6z"/>
			</g>
		</g>
		<g>
			<path d="M165,121c-0.1,0-0.2-0.1-0.2-0.1c0-0.1,0-0.2,0.1-0.2c0.2,0,0.2-0.2,0.3-0.4c0.1-0.2,0.2-0.5,0.6-0.6
				c0.4-0.1,0.6,0.1,0.8,0.2s0.3,0.2,0.5,0.2s0.2-0.2,0.3-0.4c0.1-0.2,0.2-0.5,0.6-0.6c0.4-0.1,0.6,0.1,0.8,0.2s0.3,0.2,0.5,0.2
				s0.2-0.2,0.3-0.4c0.1-0.2,0.2-0.5,0.6-0.6c0.4-0.1,0.6,0.1,0.8,0.2s0.3,0.2,0.5,0.2c0.1,0,0.2,0,0.2,0.1s0,0.2-0.1,0.2
				c-0.4,0.1-0.6-0.1-0.8-0.2s-0.3-0.2-0.5-0.2s-0.2,0.2-0.3,0.4c-0.1,0.2-0.2,0.5-0.6,0.6c-0.4,0.1-0.6-0.1-0.8-0.2
				s-0.3-0.2-0.5-0.2s-0.2,0.2-0.3,0.4c-0.1,0.2-0.2,0.5-0.6,0.6c-0.4,0.1-0.6-0.1-0.8-0.2s-0.3-0.2-0.5-0.2s-0.2,0.2-0.3,0.4
				C165.5,120.7,165.4,121,165,121L165,121z"/>
		</g>
	</g>
	<g>
		<g>
			<path class="st1" d="M248.5,138.8l-0.9-0.5c-0.6,0.2-0.9,0.3-1.5,0.4l-0.5,0.9c-1.1-0.3-1-0.2-2-0.5v-1c-0.4-0.4-0.7-0.7-1.1-1.1
				h-1c-0.3-1.1-0.3-0.9-0.6-2l0.9-0.5c0.1-0.6,0.2-0.9,0.4-1.5l-0.5-0.8c0.8-0.8,0.7-0.7,1.5-1.5l0.9,0.5c0.6-0.2,0.9-0.3,1.5-0.4
				l0.5-0.9c1.1,0.3,1,0.2,2,0.5v1c0.4,0.4,0.7,0.7,1.1,1.1h1c0.3,1.1,0.3,0.9,0.6,2l-0.9,0.5c-0.1,0.6-0.2,0.9-0.4,1.5l0.5,0.8
				C249.2,138.1,249.3,138,248.5,138.8z"/>
			<path d="M245.7,139.8L245.7,139.8l-2.1-0.5c-0.1,0-0.1-0.1-0.1-0.2v-0.9l-1-1h-0.9c-0.1,0-0.2,0-0.2-0.1l-0.6-2
				c0-0.1,0-0.2,0.1-0.2l0.8-0.5l0.3-1.4l-0.5-0.8c0-0.1,0-0.2,0-0.2l1.5-1.5c0.1-0.1,0.1-0.1,0.2,0l0.8,0.5l1.4-0.4l0.4-0.8
				c0-0.1,0.1-0.1,0.2-0.1l2,0.5c0.1,0,0.1,0.1,0.1,0.2v0.9l1,1h0.9c0.1,0,0.2,0,0.2,0.1l0.6,2c0,0.1,0,0.2-0.1,0.2L250,135
				l-0.3,1.4l0.5,0.8c0,0.1,0,0.2,0,0.2l-1.5,1.5c-0.1,0.1-0.1,0.1-0.2,0l-0.8-0.5l-1.4,0.4l-0.4,0.8
				C245.8,139.8,245.8,139.8,245.7,139.8z M243.8,139l1.8,0.4l0.4-0.8l0.1-0.1l1.5-0.4h0.1l0.8,0.4l1.3-1.3l-0.5-0.7v-0.1l0.4-1.5
				c0,0,0-0.1,0.1-0.1l0.7-0.4l-0.5-1.8h-0.9H249l-1.1-1.1l-0.1-0.1v-0.9l-1.8-0.4l-0.4,0.8l-0.1,0.1l-1.5,0.4h-0.1l-0.8-0.4
				l-1.3,1.3l0.5,0.7v0.1l-0.4,1.5c0,0,0,0.1-0.1,0.1l-0.7,0.4l0.5,1.8h0.9h0.1l1.1,1.1l0.1,0.1V139z"/>
		</g>
		<g>
			<path class="st1" d="M247.8,134.7c0,1.1-0.9,2-2,2s-2-0.9-2-2s0.9-2,2-2C246.9,132.8,247.8,133.7,247.8,134.7z"/>
			<path d="M245.8,136.9c-1.2,0-2.1-1-2.1-2.1s1-2.1,2.1-2.1c1.2,0,2.1,1,2.1,2.1S247,136.9,245.8,136.9z M245.8,132.9
				c-1,0-1.8,0.8-1.8,1.8s0.8,1.8,1.8,1.8s1.8-0.8,1.8-1.8C247.6,133.8,246.8,132.9,245.8,132.9z"/>
		</g>
	</g>
	<g>
		<g>
			<path class="st2" d="M127.4,179.4l0.9-0.5c-0.3-1.1-0.3-0.9-0.6-2h-1c-0.4-0.4-0.7-0.7-1.1-1.1v-1c-1.1-0.3-1-0.2-2-0.5l-0.5,0.9
				c-0.6,0.2-0.9,0.3-1.5,0.4l-0.9-0.5c-0.8,0.8-0.7,0.7-1.5,1.5l0.5,0.8c-0.1,0.6-0.2,0.9-0.4,1.5l-0.9,0.5c0.3,1.1,0.3,0.9,0.6,2
				h1c0.4,0.4,0.7,0.7,1.1,1.1v1c1.1,0.3,1,0.2,2,0.5l0.5-0.9c0.6-0.2,0.9-0.3,1.5-0.4l0.9,0.5c0.8-0.8,0.7-0.7,1.5-1.5l-0.5-0.8
				C127.2,180.4,127.3,180,127.4,179.4z M123.4,181.2c-1.1,0-2-0.9-2-2s0.9-2,2-2s2,0.9,2,2C125.4,180.4,124.5,181.2,123.4,181.2z"
				/>
			<path d="M123.3,184.3L123.3,184.3l-2.1-0.5c-0.1,0-0.1-0.1-0.1-0.2v-0.9l-1-1h-0.9c-0.1,0-0.2,0-0.2-0.1l-0.6-2
				c0-0.1,0-0.2,0.1-0.2l0.8-0.5l0.3-1.4l-0.5-0.8c0-0.1,0-0.2,0-0.2l1.5-1.5c0.1-0.1,0.1-0.1,0.2,0l0.8,0.5l1.4-0.4l0.4-0.8
				c0-0.1,0.1-0.1,0.2-0.1l2,0.5c0.1,0,0.1,0.1,0.1,0.2v0.9l1,1h0.9c0.1,0,0.2,0,0.2,0.1l0.6,2c0,0.1,0,0.2-0.1,0.2l-0.8,0.5
				l-0.3,1.4l0.5,0.8c0,0.1,0,0.2,0,0.2l-1.5,1.5c-0.1,0.1-0.1,0.1-0.2,0l-0.8-0.5l-1.4,0.4l-0.4,0.8
				C123.4,184.3,123.4,184.3,123.3,184.3z M121.4,183.5l1.8,0.4l0.4-0.8l0.1-0.1l1.5-0.4h0.1l0.8,0.4l1.3-1.3l-0.5-0.7v-0.1l0.4-1.5
				c0,0,0-0.1,0.1-0.1l0.7-0.4l-0.5-1.8h-0.9h-0.1l-1.1-1.1l-0.1-0.1V175l-1.8-0.4l-0.4,0.8l-0.1,0.1l-1.5,0.4h-0.1l-0.8-0.4
				l-1.3,1.3l0.5,0.7v0.1l-0.4,1.5c0,0,0,0.1-0.1,0.1l-0.7,0.4l0.5,1.8h0.9h0.1l1.1,1.1l0.1,0.1V183.5z M123.4,181.4
				c-1.2,0-2.1-1-2.1-2.1c0-1.2,1-2.1,2.1-2.1c1.2,0,2.1,1,2.1,2.1S124.6,181.4,123.4,181.4z M123.4,177.5c-1,0-1.8,0.8-1.8,1.8
				s0.8,1.8,1.8,1.8s1.8-0.8,1.8-1.8C125.2,178.3,124.4,177.5,123.4,177.5z"/>
		</g>
	</g>
	<g>
		<circle cx="235.8" cy="140.7" r="0.9"/>
		<path d="M235.8,141.7c-0.6,0-1-0.5-1-1c0-0.6,0.5-1,1-1c0.6,0,1,0.5,1,1S236.3,141.7,235.8,141.7z M235.8,140
			c-0.4,0-0.7,0.3-0.7,0.7s0.3,0.7,0.7,0.7s0.7-0.3,0.7-0.7C236.4,140.3,236.1,140,235.8,140z"/>
	</g>
	<g>
		<circle cx="312.9" cy="167.9" r="0.9"/>
		<path d="M312.9,169c-0.6,0-1-0.5-1-1c0-0.6,0.5-1,1-1c0.6,0,1,0.5,1,1C314,168.5,313.5,169,312.9,169z M312.9,167.2
			c-0.4,0-0.7,0.3-0.7,0.7s0.3,0.7,0.7,0.7c0.4,0,0.7-0.3,0.7-0.7S313.3,167.2,312.9,167.2z"/>
	</g>
	<g>
		<path d="M129.2,165.8c0.6,0,1.1,0.5,1.1,1.1s-0.5,1.1-1.1,1.1s-1.1-0.5-1.1-1.1C128.1,166.3,128.6,165.8,129.2,165.8z"/>
		<path d="M129.2,168.1c-0.7,0-1.2-0.6-1.2-1.2c0-0.7,0.6-1.2,1.2-1.2c0.7,0,1.2,0.6,1.2,1.2C130.4,167.6,129.9,168.1,129.2,168.1z
			 M129.2,166c-0.5,0-0.9,0.4-0.9,0.9s0.4,0.9,0.9,0.9s0.9-0.4,0.9-0.9C130.1,166.4,129.7,166,129.2,166z"/>
	</g>
	<g>
		<path d="M194,129c0.2,0,0.4,0.2,0.4,0.4s-0.2,0.4-0.4,0.4s-0.4-0.2-0.4-0.4C193.5,129.2,193.7,129,194,129z"/>
		<path d="M194,130.1c-0.3,0-0.6-0.3-0.6-0.6s0.3-0.6,0.6-0.6s0.6,0.3,0.6,0.6S194.3,130.1,194,130.1z M194,129.2
			c-0.1,0-0.2,0.1-0.2,0.2c0,0.1,0.1,0.2,0.2,0.2s0.2-0.1,0.2-0.2S194.1,129.2,194,129.2z"/>
	</g>
	<g>
		<path d="M309.5,192.4c0.2,0,0.4,0.2,0.4,0.4s-0.2,0.4-0.4,0.4c-0.2,0-0.4-0.2-0.4-0.4C309.1,192.6,309.3,192.4,309.5,192.4z"/>
		<path d="M309.5,193.4c-0.3,0-0.6-0.3-0.6-0.6s0.3-0.6,0.6-0.6c0.3,0,0.6,0.3,0.6,0.6S309.8,193.4,309.5,193.4z M309.5,192.6
			c-0.1,0-0.2,0.1-0.2,0.2c0,0.1,0.1,0.2,0.2,0.2s0.2-0.1,0.2-0.2C309.7,192.7,309.6,192.6,309.5,192.6z"/>
	</g>
	<g>
		<path d="M177.9,155.3c0.2,0,0.4,0.2,0.4,0.4s-0.2,0.4-0.4,0.4s-0.4-0.2-0.4-0.4C177.5,155.4,177.7,155.3,177.9,155.3z"/>
		<path d="M177.9,156.3c-0.3,0-0.6-0.3-0.6-0.6s0.3-0.6,0.6-0.6s0.6,0.3,0.6,0.6S178.3,156.3,177.9,156.3z M177.9,155.4
			c-0.1,0-0.2,0.1-0.2,0.2c0,0.1,0.1,0.2,0.2,0.2c0.1,0,0.2-0.1,0.2-0.2C178.2,155.5,178.1,155.4,177.9,155.4z"/>
	</g>
	<g>
		<circle class="st1" cx="196.1" cy="142.5" r="1.2"/>
		<path d="M196.1,143.9c-0.7,0-1.4-0.6-1.4-1.4c0-0.7,0.6-1.4,1.4-1.4s1.4,0.6,1.4,1.4C197.5,143.3,196.9,143.9,196.1,143.9z
			 M196.1,141.5c-0.6,0-1,0.4-1,1s0.4,1,1,1s1-0.4,1-1C197.1,142,196.7,141.5,196.1,141.5z"/>
	</g>
	<g>
		<path class="st1" d="M267.8,128.2c0-0.7,0.5-1.2,1.2-1.2s1.2,0.5,1.2,1.2s-0.5,1.2-1.2,1.2S267.8,128.9,267.8,128.2z"/>
		<path d="M269,129.6c-0.7,0-1.4-0.6-1.4-1.4c0-0.7,0.6-1.4,1.4-1.4s1.4,0.6,1.4,1.4C270.4,129,269.8,129.6,269,129.6z M269,127.2
			c-0.6,0-1,0.4-1,1c0,0.6,0.4,1,1,1s1-0.4,1-1C270,127.7,269.6,127.2,269,127.2z"/>
	</g>
	<g>
		<circle class="st1" cx="132.3" cy="188.4" r="0.8"/>
		<path d="M132.3,189.4c-0.5,0-0.9-0.4-0.9-0.9s0.4-0.9,0.9-0.9s0.9,0.4,0.9,0.9C133.3,189,132.9,189.4,132.3,189.4z M132.3,187.9
			c-0.3,0-0.6,0.3-0.6,0.6s0.3,0.6,0.6,0.6s0.6-0.3,0.6-0.6C132.9,188.1,132.7,187.9,132.3,187.9z"/>
	</g>
	<g>
		<path d="M280.1,145L280.1,145c-0.5,0-1-0.1-1.4-0.3c-0.1,0-0.1-0.1-0.1-0.2c0-0.1,0.1-0.1,0.2-0.1c0.4,0.2,0.9,0.2,1.3,0.3
			c0.1,0,0.2,0.1,0.2,0.2C280.3,144.9,280.2,145,280.1,145z M281.5,144.8c-0.1,0-0.1,0-0.2-0.1c0-0.1,0-0.2,0.1-0.2
			c0.4-0.1,0.8-0.3,1.2-0.6c0.1-0.1,0.2,0,0.2,0c0.1,0.1,0,0.2,0,0.2C282.4,144.4,282,144.6,281.5,144.8L281.5,144.8z M277.5,144
			h-0.1c-0.4-0.3-0.7-0.7-0.9-1.1c0-0.1,0-0.2,0.1-0.2s0.2,0,0.2,0.1c0.2,0.4,0.5,0.7,0.9,1c0.1,0.1,0.1,0.2,0,0.2
			S277.6,144,277.5,144z M283.7,143.1C283.6,143.1,283.6,143.1,283.7,143.1c-0.2-0.1-0.2-0.2-0.1-0.3c0.2-0.4,0.4-0.8,0.5-1.2
			c0-0.1,0.1-0.2,0.2-0.1c0.1,0,0.2,0.1,0.1,0.2c-0.1,0.5-0.3,0.9-0.6,1.3C283.8,143.1,283.7,143.1,283.7,143.1z M276.1,141.6
			c-0.1,0-0.2-0.1-0.2-0.1c-0.1-0.3-0.1-0.5-0.1-0.8c0-0.5,0.1-1,0.2-1.4c0-0.1,0.1-0.1,0.2-0.1s0.1,0.1,0.1,0.2
			c-0.1,0.4-0.2,0.9-0.2,1.3c0,0.3,0,0.5,0.1,0.8C276.3,141.5,276.2,141.6,276.1,141.6L276.1,141.6z M284.3,140.4
			c-0.1,0-0.2-0.1-0.2-0.2c0-0.5-0.2-0.9-0.4-1.3c0-0.1,0-0.2,0.1-0.2s0.2,0,0.2,0.1c0.2,0.4,0.3,0.9,0.4,1.4
			C284.5,140.4,284.5,140.4,284.3,140.4C284.4,140.4,284.4,140.4,284.3,140.4z M277,138.2h-0.1c-0.1-0.1-0.1-0.2,0-0.2
			c0.3-0.4,0.7-0.7,1.1-1c0.1-0.1,0.2,0,0.2,0.1c0.1,0.1,0,0.2-0.1,0.2c-0.4,0.2-0.7,0.5-1,0.9H277z M283.2,137.9c0,0-0.1,0-0.1-0.1
			c-0.3-0.3-0.7-0.6-1.1-0.8c-0.1,0-0.1-0.1-0.1-0.2c0-0.1,0.1-0.1,0.2-0.1c0.4,0.2,0.8,0.5,1.2,0.9c0.1,0.1,0.1,0.2,0,0.2
			C283.3,137.9,283.2,137.9,283.2,137.9z M279.3,136.8c-0.1,0-0.2-0.1-0.2-0.1c0-0.1,0-0.2,0.1-0.2c0.5-0.1,1-0.1,1.5-0.1
			c0.1,0,0.2,0.1,0.2,0.2c0,0.1-0.1,0.2-0.2,0.2C280.2,136.7,279.8,136.7,279.3,136.8L279.3,136.8z"/>
	</g>
	<g>
		<path d="M198.9,188.3c-0.2,0-0.4,0-0.6-0.1c-0.1,0-0.1-0.1-0.1-0.2c0-0.1,0.1-0.2,0.2-0.1c0.2,0,0.3,0.1,0.5,0.1
			c0.3,0,0.5-0.1,0.8-0.2c0.1,0,0.2,0,0.2,0.1s0,0.2-0.1,0.2C199.5,188.2,199.2,188.3,198.9,188.3z M197.2,187.4
			c-0.1,0-0.1,0-0.1-0.1c-0.2-0.4-0.4-0.8-0.4-1.2c0-0.5,0.2-1,0.5-1.4c0.1-0.1,0.2-0.1,0.2,0c0.1,0.1,0.1,0.2,0,0.2
			c-0.3,0.3-0.4,0.7-0.4,1.2c0,0.4,0.1,0.7,0.3,1C197.4,187.2,197.4,187.3,197.2,187.4C197.3,187.4,197.3,187.4,197.2,187.4z
			 M200.7,187.1C200.7,187.1,200.6,187.1,200.7,187.1c-0.2-0.1-0.2-0.2-0.2-0.2c0.1-0.2,0.1-0.5,0.1-0.7s0-0.4-0.1-0.5
			c0-0.1,0-0.2,0.1-0.2s0.2,0,0.2,0.1c0.1,0.2,0.1,0.4,0.1,0.6C200.9,186.5,200.8,186.8,200.7,187.1
			C200.8,187,200.8,187.1,200.7,187.1z M199.9,184.6L199.9,184.6c-0.4-0.2-0.7-0.3-1.1-0.3c-0.1,0-0.2,0-0.3,0s-0.2-0.1-0.2-0.1
			c0-0.1,0.1-0.2,0.1-0.2c0.1,0,0.2,0,0.3,0c0.4,0,0.8,0.1,1.1,0.3c0.1,0.1,0.1,0.2,0.1,0.2C200,184.6,200,184.6,199.9,184.6z"/>
	</g>
	<g>
		<path d="M116,166.5L116,166.5c-0.2,0-0.4,0-0.6-0.1c-0.1,0-0.1-0.1-0.1-0.2c0-0.1,0.1-0.2,0.2-0.1c0.2,0,0.3,0.1,0.5,0.1l0,0
			c0.3,0,0.5-0.1,0.8-0.2c0.1,0,0.2,0,0.2,0.1s0,0.2-0.1,0.2C116.6,166.5,116.3,166.5,116,166.5z M114.3,165.7c-0.1,0-0.1,0-0.1-0.1
			c-0.2-0.4-0.4-0.8-0.4-1.2c0-0.5,0.2-1,0.5-1.4c0.1-0.1,0.2-0.1,0.2,0c0.1,0.1,0.1,0.2,0,0.2c-0.3,0.3-0.4,0.7-0.4,1.2
			c0,0.4,0.1,0.7,0.3,1C114.5,165.5,114.5,165.6,114.3,165.7C114.4,165.7,114.3,165.7,114.3,165.7z M117.8,165.3
			C117.7,165.3,117.7,165.3,117.8,165.3c-0.2-0.1-0.2-0.2-0.2-0.2c0.1-0.2,0.1-0.5,0.1-0.7s0-0.4-0.1-0.5c0-0.1,0-0.2,0.1-0.2
			s0.2,0,0.2,0.1c0.1,0.2,0.1,0.4,0.1,0.6C118,164.7,117.9,165,117.8,165.3C117.9,165.3,117.8,165.3,117.8,165.3z M117,162.9
			C117,162.9,116.9,162.9,117,162.9c-0.4-0.2-0.7-0.3-1.1-0.3c-0.1,0-0.2,0-0.3,0c-0.1,0-0.2-0.1-0.2-0.1c0-0.1,0.1-0.2,0.1-0.2
			c0.1,0,0.2,0,0.3,0c0.4,0,0.8,0.1,1.1,0.3c0.1,0.1,0.1,0.2,0.1,0.2C117.1,162.8,117.1,162.9,117,162.9z"/>
	</g>
	<g>
		<path d="M222.2,113c-0.2,0-0.4,0-0.6-0.1c-0.1,0-0.1-0.1-0.1-0.2s0.1-0.1,0.2-0.1c0.2,0,0.3,0.1,0.5,0.1c0.3,0,0.5-0.1,0.8-0.2
			c0.1,0,0.2,0,0.2,0.1s0,0.2-0.1,0.2C222.9,112.9,222.5,113,222.2,113z M220.6,112.1c-0.1,0-0.1,0-0.1-0.1
			c-0.2-0.4-0.4-0.8-0.4-1.2c0-0.5,0.2-1,0.5-1.4c0.1-0.1,0.2-0.1,0.2,0c0.1,0.1,0.1,0.2,0,0.2c-0.3,0.3-0.4,0.7-0.4,1.2
			c0,0.4,0.1,0.7,0.3,1C220.8,111.9,220.8,112,220.6,112.1L220.6,112.1z M224,111.8L224,111.8c-0.2-0.1-0.2-0.2-0.2-0.2
			c0.1-0.2,0.1-0.5,0.1-0.7s0-0.4-0.1-0.5c0-0.1,0-0.2,0.1-0.2s0.2,0,0.2,0.1c0.1,0.2,0.1,0.4,0.1,0.6
			C224.2,111.2,224.1,111.5,224,111.8C224.2,111.8,224.1,111.8,224,111.8z M223.3,109.3C223.2,109.3,223.2,109.3,223.3,109.3
			c-0.4-0.2-0.7-0.3-1.1-0.3l0,0c-0.1,0-0.2,0-0.3,0s-0.2-0.1-0.2-0.1c0-0.1,0.1-0.2,0.1-0.2c0.1,0,0.2,0,0.3,0l0,0
			c0.4,0,0.8,0.1,1.1,0.3C223.3,109.1,223.3,109.2,223.3,109.3C223.4,109.3,223.3,109.3,223.3,109.3z"/>
	</g>
	<g>
		<g>
			<path class="st1" d="M258.2,113.5h-26.4c-0.8,0-1.3,0.7-1.2,1.4l1.5,9.9c0.1,0.6,0.6,1,1.2,1h1.5l0.1,5.6l3.8-5.6h18
				c0.6,0,1.1-0.4,1.2-1l1.5-9.9C259.5,114.2,259,113.5,258.2,113.5z"/>
			<path d="M234.9,131.6C234.9,131.6,234.8,131.6,234.9,131.6c-0.1,0-0.2-0.1-0.2-0.2V126h-1.3c-0.7,0-1.3-0.5-1.4-1.2l-1.5-9.9
				c-0.1-0.4,0.1-0.8,0.3-1.1c0.3-0.3,0.7-0.5,1.1-0.5h26.4c0.4,0,0.8,0.2,1.1,0.5c0.3,0.3,0.4,0.7,0.3,1.1l-1.5,9.9
				c-0.1,0.7-0.7,1.2-1.4,1.2h-17.9l-3.7,5.5C235,131.6,234.9,131.6,234.9,131.6z M231.8,113.7c-0.3,0-0.6,0.1-0.8,0.4
				c-0.2,0.2-0.3,0.5-0.2,0.8l1.5,9.9c0.1,0.5,0.5,0.9,1,0.9h1.5c0.1,0,0.2,0.1,0.2,0.2v5l3.5-5.1l0.1-0.1h18c0.5,0,1-0.4,1-0.9
				l1.5-9.9c0-0.3,0-0.6-0.2-0.8c-0.2-0.2-0.5-0.4-0.8-0.4C258.1,113.7,231.8,113.7,231.8,113.7z"/>
		</g>
	</g>
	<g>
		<g>
			<path class="st1" d="M308.7,149.3h-26.4c-0.8,0-1.3,0.7-1.2,1.4l1.5,9.9c0.1,0.6,0.6,1,1.2,1h1.5l0.1,5.6l3.8-5.6h18
				c0.6,0,1.1-0.4,1.2-1l1.5-9.9C310,150,309.4,149.3,308.7,149.3z"/>
			<path d="M285.3,167.4L285.3,167.4c-0.1,0-0.2-0.1-0.2-0.2v-5.4h-1.3c-0.7,0-1.3-0.5-1.4-1.2l-1.5-9.9c-0.1-0.4,0.1-0.8,0.3-1.1
				c0.3-0.3,0.7-0.5,1.1-0.5h26.4c0.4,0,0.8,0.2,1.1,0.5c0.3,0.3,0.4,0.7,0.3,1.1l-1.5,9.9c-0.1,0.7-0.7,1.2-1.4,1.2h-17.9l-3.7,5.5
				C285.4,167.4,285.4,167.4,285.3,167.4z M282.3,149.5c-0.3,0-0.6,0.1-0.8,0.4c-0.2,0.2-0.3,0.5-0.2,0.8l1.5,9.9
				c0.1,0.5,0.5,0.9,1,0.9h1.5c0.1,0,0.2,0.1,0.2,0.2v5l3.5-5.1l0.1-0.1h18c0.5,0,1-0.4,1-0.9l1.5-9.9c0-0.3,0-0.6-0.2-0.8
				s-0.5-0.4-0.8-0.4L282.3,149.5L282.3,149.5z"/>
		</g>
	</g>
	<g>
		<g>
			<path class="st1" d="M117.8,140.7h26.4c0.8,0,1.3,0.7,1.2,1.4l-1.5,9.9c-0.1,0.6-0.6,1-1.2,1h-1.5l-0.1,5.6l-3.8-5.6h-18
				c-0.6,0-1.1-0.4-1.2-1l-1.5-9.9C116.4,141.4,117,140.7,117.8,140.7z"/>
			<path d="M141.1,158.8c-0.1,0-0.1,0-0.1-0.1l-3.7-5.5h-17.9c-0.7,0-1.3-0.5-1.4-1.2l-1.5-9.9c-0.1-0.4,0.1-0.8,0.3-1.1
				c0.3-0.3,0.7-0.5,1.1-0.5h26.4c0.4,0,0.8,0.2,1.1,0.5s0.4,0.7,0.3,1.1l-1.5,9.9c-0.1,0.7-0.7,1.2-1.4,1.2h-1.3v5.4
				C141.3,158.7,141.3,158.8,141.1,158.8C141.2,158.8,141.1,158.8,141.1,158.8z M117.8,140.9c-0.3,0-0.6,0.1-0.8,0.4
				c-0.2,0.2-0.3,0.5-0.2,0.8l1.5,9.9c0.1,0.5,0.5,0.9,1,0.9h18c0.1,0,0.1,0,0.1,0.1l3.5,5.1v-5c0-0.1,0.1-0.2,0.2-0.2h1.5
				c0.5,0,1-0.4,1-0.9l1.5-9.9c0-0.3,0-0.6-0.2-0.8s-0.5-0.4-0.8-0.4L117.8,140.9L117.8,140.9z"/>
		</g>
	</g>
	<g>
		<path d="M250.6,121.2c-0.4,0-0.8-0.1-1.2-0.2c-0.6-0.2-1.2-0.6-1.6-1.1c-0.5,0.4-1.1,0.7-1.8,0.8c-0.8,0.2-1.9,0.4-3-0.1
			c-0.5-0.2-0.9-0.5-1.2-0.9c-1.6,0.9-3.6,1.2-5.3,0.6c-0.1,0-0.1-0.1-0.1-0.2s0.1-0.1,0.2-0.1c1.6,0.6,3.5,0.4,5-0.5
			c-0.2-0.4-0.3-0.8-0.3-1.2c0-0.4,0.2-0.9,0.5-1.1c0.2-0.2,0.4-0.2,0.7-0.2c0.2,0,0.4,0.2,0.6,0.4c0.2,0.3,0.2,0.6,0.2,0.9
			c-0.1,0.5-0.6,0.9-0.9,1.2c-0.1,0-0.1,0.1-0.2,0.1c0.3,0.3,0.6,0.6,1,0.8c1,0.4,2,0.2,2.8,0c0.6-0.2,1.2-0.5,1.7-0.8
			c-0.2-0.3-0.3-0.7-0.4-1.1c-0.1-0.5,0.1-1,0.5-1.3c0.2-0.2,0.5-0.3,0.8-0.2c0.5,0.1,0.7,0.7,0.7,1.1s-0.2,0.7-0.5,1.1
			c-0.2,0.2-0.3,0.3-0.5,0.5c0.3,0.4,0.8,0.8,1.4,1c1.1,0.4,2.3,0.1,3.1-0.2c0.1,0,0.2,0,0.2,0.1s0,0.2-0.1,0.2
			C252.2,121,251.4,121.2,250.6,121.2z M248.3,117.4c-0.1,0-0.2,0-0.3,0.1c-0.3,0.2-0.4,0.6-0.4,1c0,0.3,0.1,0.6,0.3,0.9
			c0.2-0.1,0.3-0.3,0.4-0.4c0.3-0.3,0.4-0.6,0.4-0.9S248.6,117.5,248.3,117.4C248.4,117.4,248.3,117.4,248.3,117.4z M242.4,117.4
			c-0.1,0-0.2,0-0.3,0.1c-0.2,0.2-0.4,0.5-0.4,0.8s0.1,0.7,0.3,1c0.1,0,0.1-0.1,0.2-0.1c0.4-0.3,0.7-0.6,0.8-1c0-0.2,0-0.4-0.1-0.6
			C242.7,117.5,242.6,117.4,242.4,117.4L242.4,117.4z"/>
	</g>
	<g>
		<g>
			<path d="M125.6,146.7c0-0.3,0.2-0.5,0.5-0.5s0.5,0.2,0.5,0.5s-0.2,0.5-0.5,0.5C125.8,147.2,125.6,147,125.6,146.7z"/>
			<path d="M126.1,147.4c-0.4,0-0.6-0.3-0.6-0.6c0-0.4,0.3-0.6,0.6-0.6c0.4,0,0.7,0.3,0.7,0.6C126.7,147.1,126.5,147.4,126.1,147.4z
				 M126.1,146.4c-0.2,0-0.3,0.1-0.3,0.3s0.1,0.3,0.3,0.3c0.2,0,0.3-0.1,0.3-0.3C126.4,146.6,126.3,146.4,126.1,146.4z"/>
		</g>
		<g>
			<circle cx="130.9" cy="146.7" r="0.5"/>
			<path d="M130.9,147.4c-0.4,0-0.6-0.3-0.6-0.6c0-0.4,0.3-0.6,0.6-0.6c0.4,0,0.7,0.3,0.7,0.6C131.6,147.1,131.3,147.4,130.9,147.4z
				 M130.9,146.4c-0.2,0-0.3,0.1-0.3,0.3s0.1,0.3,0.3,0.3s0.3-0.1,0.3-0.3C131.2,146.6,131.1,146.4,130.9,146.4z"/>
		</g>
		<g>
			<path d="M135.3,146.7c0-0.3,0.2-0.5,0.5-0.5s0.5,0.2,0.5,0.5s-0.2,0.5-0.5,0.5S135.3,147,135.3,146.7z"/>
			<path d="M135.7,147.4c-0.4,0-0.6-0.3-0.6-0.6c0-0.4,0.3-0.6,0.6-0.6s0.6,0.3,0.6,0.6C136.4,147.1,136.1,147.4,135.7,147.4z
				 M135.7,146.4c-0.2,0-0.3,0.1-0.3,0.3s0.1,0.3,0.3,0.3s0.3-0.1,0.3-0.3C136,146.6,135.9,146.4,135.7,146.4z"/>
		</g>
	</g>
	<g>
		<path d="M301.3,154.1h-12c-0.1,0-0.2-0.1-0.2-0.2c0-0.1,0.1-0.2,0.2-0.2h12c0.1,0,0.2,0.1,0.2,0.2
			C301.4,154,301.4,154.1,301.3,154.1z"/>
	</g>
	<g>
		<path d="M299.6,156.7h-8.4c-0.1,0-0.2-0.1-0.2-0.2c0-0.1,0.1-0.2,0.2-0.2h8.4c0.1,0,0.2,0.1,0.2,0.2
			C299.8,156.6,299.7,156.7,299.6,156.7z"/>
	</g>
</g>
<g class="st3">
	<g>
		<path class="st4" d="M102.2,188l-7.8-4.4c0.3,0.1,0.6,0.2,0.9,0.2l6.2,3.6C101.8,187.6,102,187.8,102.2,188z"/>
	</g>
	<g>
		<path class="st4" d="M104.4,191.1l-14-8h0.1c0.1,0,0.2,0,0.3,0l13.3,7.6C104.3,190.8,104.4,191,104.4,191.1z"/>
	</g>
	<g>
		<path class="st4" d="M105.4,193.4l-17.7-10.1c0.1,0,0.2,0,0.4-0.1l17.3,9.8C105.4,193.2,105.4,193.3,105.4,193.4z"/>
	</g>
	<g>
		<path class="st4" d="M105.9,195.5l-20.4-11.7c0.1,0,0.2-0.1,0.3-0.1l20.1,11.5C105.9,195.3,105.9,195.4,105.9,195.5z"/>
	</g>
	<g>
		<path class="st4" d="M106.1,197.4l-22.5-12.8c0.1,0,0.2-0.1,0.3-0.1l22.2,12.7C106.1,197.2,106.1,197.3,106.1,197.4z"/>
	</g>
	<g>
		<path class="st4" d="M106,198.9c0,0.1,0,0.2,0,0.2l-24-13.7c0.1,0,0.2-0.1,0.2-0.1L106,198.9z"/>
	</g>
	<g>
		<path class="st4" d="M80.5,186.4c0.1-0.1,0.1-0.1,0.2-0.1l24.1,13.7h-0.5L80.5,186.4z"/>
	</g>
	<g>
		<path class="st4" d="M79.2,187.4c0.1-0.1,0.1-0.1,0.2-0.2l22.3,12.7h-0.5L79.2,187.4z"/>
	</g>
	<g>
		<path class="st4" d="M78.1,188.6c0.1-0.1,0.1-0.1,0.2-0.2L98.6,200h-0.5L78.1,188.6z"/>
	</g>
	<g>
		<path class="st4" d="M77.2,189.8c0-0.1,0.1-0.1,0.1-0.2l18.1,10.3h-0.5L77.2,189.8z"/>
	</g>
	<g>
		<path class="st4" d="M76.3,191.1c0-0.1,0.1-0.1,0.1-0.2l15.8,9h-0.5L76.3,191.1z"/>
	</g>
	<g>
		<path class="st4" d="M75.7,192.5c0-0.1,0.1-0.1,0.1-0.2l13.4,7.6h-0.5L75.7,192.5z"/>
	</g>
	<g>
		<path class="st4" d="M75.2,194.1L75.2,194.1c0-0.1,0-0.2,0.1-0.2L86,200h-0.5L75.2,194.1z"/>
	</g>
	<g>
		<path class="st4" d="M74.9,195.7c0-0.1,0-0.2,0-0.2l8,4.5h-0.5L74.9,195.7z"/>
	</g>
	<g>
		<polygon class="st4" points="74.7,197.4 74.7,197.1 79.7,200 79.3,200 		"/>
	</g>
	<g>
		<path class="st4" d="M74.8,198.9l1.8,1h-0.5l-1.3-0.7C74.8,199.1,74.8,199,74.8,198.9z"/>
	</g>
</g>
<g>
	<polygon class="st0" points="107.9,156.4 105.5,153.6 105.8,153.3 108.1,156.1 	"/>
	<polygon class="st0" points="105.5,156.1 107.9,153.3 108.1,153.6 105.8,156.4 	"/>
</g>
</svg>
